<svg width="707" height="688" viewBox="0 0 707 688" fill="none" xmlns="http://www.w3.org/2000/svg">
<path d="M144.928 364.641C144.928 368.693 144.928 372.744 145.591 376.649C146.061 386.017 148.576 395.169 152.957 403.463C162.04 418.617 172.104 433.16 183.085 447C189.841 455.798 199.409 462.012 210.193 464.607C225.294 467.701 240.689 467.406 255.938 469.027C258.758 469.048 261.496 469.978 263.746 471.679C273.792 479.895 287.42 482.217 299.62 477.793C308.424 475.906 317.45 475.262 326.433 475.878C336.235 476.051 346.004 474.684 355.382 471.826C373.577 466.08 384.848 451.199 396.486 437.866C397.972 435.65 398.953 433.135 399.359 430.499C402.626 415.864 408.705 402.003 417.259 389.688C421.974 382.481 425.924 374.803 429.045 366.777C436.411 350.055 434.865 332.08 437.074 314.621C438.501 305.767 438.277 296.726 436.411 287.954C432.875 273.319 426.871 259.393 418.659 246.774C406.578 228.284 403.926 206.994 402.306 185.631C402.265 176.62 400.437 167.706 396.928 159.406C395.285 156.056 393.906 152.583 392.803 149.019C387.87 133.272 377.742 119.663 364.075 110.417C356.373 105.35 351.057 97.3753 349.342 88.3172C344.967 70.7905 335.541 54.9346 322.234 42.7176C320.173 40.091 317.028 38.5457 313.689 38.5186C308.288 38.8586 303.026 36.7159 299.399 32.6989C297.206 31.1148 294.691 30.0332 292.032 29.5312C274.574 23.4169 248.424 36.4559 242.31 53.6939C239.31 61.5988 233.372 68.0387 225.736 71.6686C219.895 74.6627 214.451 78.3748 209.53 82.7186C196.639 94.4316 185.958 107.25 185.958 126.035C186.059 135.521 182.588 144.699 176.235 151.744C173.15 155.243 170.662 159.225 168.868 163.531C157.75 186.825 151.866 212.271 151.631 238.082C151.864 250.112 150.401 262.114 147.285 273.736C143.465 285.717 143.465 298.589 147.285 310.57C149.897 318.614 149.897 327.278 147.285 335.322C143.949 344.72 143.136 354.83 144.928 364.641Z" fill="#5CBD88" fill-opacity="0.588145"/>
<path fill-rule="evenodd" clip-rule="evenodd" d="M141.459 178.415C144.257 176.956 144.992 174.538 145.707 172.183L145.707 172.182C145.899 171.553 146.089 170.927 146.316 170.326C149.885 157.895 155.318 146.077 162.43 135.272C168.653 127.136 172.256 117.303 172.762 107.075C173.918 83.2699 188.953 68.5552 206.069 55.2272C208.844 53.1215 211.826 51.2897 214.807 49.4578L214.807 49.4578C216.297 48.5418 217.788 47.6259 219.253 46.6757C224.902 42.9642 229.244 37.5751 231.666 31.2677C235.536 21.3868 243.077 13.3822 252.714 8.92595C258.392 6.20992 264.208 3.79268 270.139 1.68415C281.146 -1.76503 293.134 0.145967 302.521 6.84586C305.522 9.12112 309.101 10.5091 312.852 10.852C322.319 11.3903 327.637 18.5307 332.564 25.1463L332.59 25.1815C343.403 37.1784 351.153 51.6097 355.18 67.2455C356.56 74.1889 360.29 80.446 365.743 84.9648C368.596 87.4301 370.292 87.0449 372.451 84.0403C376.568 77.9678 381.021 72.1294 385.789 66.5522C393.716 57.1623 403.83 49.8608 415.241 45.289C420.484 43.1728 426.344 43.1728 431.586 45.289C436.989 46.953 442.053 49.5615 446.544 52.9931C454.547 59.0328 463.974 62.907 473.914 64.241C478.042 65.0132 482.074 66.2272 485.942 67.8619C492.035 70.055 496.594 75.1917 498.047 81.498C501.747 99.9877 513.929 112.314 527.961 122.869C549.088 139.359 562.386 163.897 564.661 190.587C565.001 193.163 565.587 195.739 566.186 198.372C566.537 199.914 566.892 201.475 567.205 203.068C570.82 203.691 573.629 201.997 576.161 200.471C576.761 200.109 577.346 199.757 577.922 199.447C584.809 195.958 592.239 193.666 599.896 192.667C611.477 191.39 622.963 195.78 630.736 204.454C637.756 211.888 645.505 218.598 653.866 224.485C667.23 233.385 675.759 247.929 676.996 263.93C678.565 277.53 683.434 290.542 691.182 301.834C696.219 310.219 699.228 319.663 699.971 329.414C702.326 352.386 700.63 375.593 694.96 397.98C693.789 403.028 693.477 408.237 694.035 413.388C695.317 427.36 694.249 441.448 690.874 455.067C683.78 484.342 669.517 508.995 639.371 520.474C636.447 521.622 633.391 522.398 630.273 522.785C627.077 522.844 623.979 523.894 621.407 525.79C608.237 536.632 590.756 540.707 574.144 536.807C568.747 535.882 566.434 537.269 565.201 542.354C564.9 543.687 564.47 544.991 564.042 546.292L564.041 546.293C563.479 547.998 562.919 549.697 562.656 551.444C557.429 579.655 554.694 608.27 554.484 636.959C554.484 648.978 554.484 649.286 566.82 652.367C587.272 658.308 607.146 665.79 626.986 673.26C635.193 676.35 643.395 679.437 651.63 682.413L651.799 682.475C653.451 683.072 655.235 683.717 654.714 685.803C654.174 687.96 651.861 688.422 649.779 687.652C648.558 687.221 647.329 686.799 646.101 686.377L646.096 686.376L646.091 686.374L646.086 686.372L646.082 686.371L646.077 686.369L646.072 686.367L646.067 686.366C642.034 684.981 638.016 683.601 634.359 681.951C616.935 674.709 599.279 668.084 581.237 662.614C569.156 659.181 557.096 655.408 545.008 651.626C525.084 645.392 505.084 639.135 484.785 634.34C481.438 633.568 478.089 632.791 474.737 632.013C456.013 627.668 437.224 623.308 418.325 619.779C380.433 613.005 341.87 610.755 303.446 613.077C284.557 614.078 265.744 615.696 247.163 618.238C227.446 621.145 207.984 625.576 188.953 631.489C180.702 633.991 172.42 636.409 164.133 638.829L164.132 638.829L164.131 638.829L164.131 638.829L164.13 638.83L164.129 638.83L164.128 638.83L164.127 638.83L164.126 638.83L164.125 638.83L164.124 638.831L164.124 638.831L164.123 638.831L164.123 638.831L164.122 638.831L164.122 638.832L164.121 638.832L164.121 638.832L164.12 638.832L164.12 638.832L164.119 638.832L164.119 638.833L164.119 638.833C149.954 642.968 135.776 647.106 121.721 651.674C104.374 657.221 87.5662 664 70.8355 671.165C68.5125 672.548 65.8236 673.193 63.1255 673.014C61.3076 672.742 59.982 671.152 60.0415 669.316C60.0415 667.467 60.8896 665.618 63.1255 666.081C68.3879 666.299 73.5801 664.813 77.9287 661.843C100.864 652.296 124.374 644.191 148.321 637.576C166.213 632.358 166.208 632.108 165.904 614.067L165.9 613.847C165.914 597.75 163.576 581.736 158.961 566.313C157.419 561.229 155.414 559.688 150.171 560.227C138.668 560.58 127.19 558.937 116.247 555.373C100.911 551.189 87.3694 542.096 77.6974 529.488C72.2948 523.415 66.3191 518.037 60.3082 512.627C54.6528 507.538 48.9662 502.42 43.6963 496.669C38.2564 490.756 34.642 483.399 33.2878 475.483C33.1408 474.633 32.9952 473.783 32.8497 472.933C31.9268 467.545 31.0066 462.173 29.7412 456.916C26.7018 446.835 21.4317 437.567 14.3212 429.798C11.1848 425.624 8.32591 421.249 5.7631 416.701C-0.962895 405.764 -1.85717 392.216 3.373 380.492C7.228 370.785 11.083 360.924 14.3983 351.062C16.9883 344.173 18.2188 336.848 18.022 329.491C17.7889 317.975 19.1906 306.485 22.1854 295.362C23.7761 288.878 26.5464 282.741 30.358 277.258C40.2758 262.042 51.36 247.618 63.511 234.115C70.6684 225.488 76.2767 215.687 80.0875 205.148C84.2463 194.713 90.4005 185.188 98.206 177.105C101.655 173.717 105.779 171.092 110.311 169.401C119.745 164.886 131.051 167.51 137.527 175.718C138.776 176.704 140.089 177.605 141.459 178.415ZM465.279 511.769C463.477 513.794 461.219 513.263 458.939 512.727C456.536 512.162 454.111 511.591 452.172 514.003C452.172 514.003 450.938 512.77 450.63 511.769C450.54 511.475 450.695 511.028 450.878 510.502C451.317 509.238 451.915 507.519 449.628 506.376C447.859 509.22 445.458 511.619 442.612 513.386C434.889 517.013 429.792 524.594 429.35 533.109C430.508 558.206 429.967 583.353 427.731 608.377C427.115 616.081 427.731 616.467 435.441 617.853C444.412 619.128 453.276 621.059 461.964 623.631C466.667 625.249 468.517 623.631 468.286 618.778V613.539C467.515 588.78 468.365 563.997 470.83 539.349C471.959 533.177 472.399 526.898 472.141 520.628C472.141 520.507 472.143 520.376 472.147 520.239L472.151 520.059C472.196 518.271 472.264 515.569 469.288 516.468C465.455 517.627 465.548 515.82 465.639 514.042C465.688 513.103 465.735 512.171 465.202 511.692C468.392 509.014 469.056 504.368 466.744 500.906C465.045 504.258 464.502 508.077 465.202 511.769H465.279ZM630.952 386.445C636.654 385.106 642.38 383.761 647.389 380.107C638.728 380.462 630.15 381.938 621.869 384.498C621.434 384.582 620.992 384.702 620.553 384.821C618.579 385.355 616.675 385.87 615.855 383.034C614.59 380.232 615.616 376.926 618.245 375.33C620.082 374.327 622.056 373.6 624.105 373.173L653.48 365.469C656.121 365.401 658.449 363.717 659.34 361.232L630.659 366.856C628.791 367.229 626.583 367.8 624.67 368.295L624.667 368.296L624.666 368.296L624.663 368.297L624.662 368.297C623.42 368.619 622.303 368.908 621.484 369.09C619.402 369.552 616.781 369.86 616.781 366.779C616.141 364.679 617.212 362.44 619.248 361.617C622.556 360.554 625.909 359.628 629.273 358.698C630.3 358.414 631.327 358.13 632.355 357.842C640.309 356.638 648.08 354.438 655.485 351.293C645.087 351.596 634.75 352.991 624.645 355.454C616.318 357.303 616.241 357.149 614.545 348.597C614.236 346.825 613.851 345.13 613.388 343.435C612.155 339.044 613.697 336.964 618.014 335.731C628.272 332.079 638.989 329.875 649.856 329.183C649.239 326.405 647.631 326.595 646.064 326.78C645.676 326.826 645.29 326.872 644.922 326.872C635.124 327.322 625.417 328.952 616.01 331.725C615.873 331.773 615.739 331.821 615.608 331.868C612.166 333.094 610.305 333.758 608.3 328.49C606.416 323.54 609.393 322.565 612.261 321.625L612.264 321.624C612.405 321.578 612.547 321.531 612.687 321.485C612.845 321.432 613.002 321.379 613.157 321.325C616.351 320.19 619.578 319.169 622.8 318.15L622.802 318.15C626.579 316.955 630.348 315.763 634.051 314.391C637.916 313.756 641.45 311.828 644.074 308.921C636.196 309.942 628.444 311.775 620.944 314.391C616.894 315.5 612.927 316.89 609.071 318.551C605.755 320.015 603.982 319.014 602.363 316.086C599.805 310.933 597.765 305.54 596.272 299.985C609.71 293.776 623.806 289.098 638.291 286.04C630.107 285.38 621.873 286.375 614.082 288.968C610.401 289.745 606.825 290.94 603.26 292.131L603.259 292.132C601.522 292.712 599.788 293.291 598.045 293.821C595.964 294.438 593.728 294.746 592.88 292.203C592.031 289.661 593.651 288.197 595.732 287.35C596.448 287.082 597.164 286.812 597.881 286.542C602.718 284.721 607.571 282.894 612.54 281.418C616.888 280.216 620.969 278.203 624.568 275.486C616.141 276.369 607.855 278.283 599.896 281.187C599.541 281.286 599.155 281.413 598.749 281.546C596.333 282.338 593.242 283.352 592.186 280.185C590.952 276.487 593.188 274.099 597.12 272.481C606.246 268.882 615.184 266.123 624.227 263.332L624.229 263.332L624.232 263.331L624.234 263.33L624.236 263.33L624.239 263.329C626.805 262.537 629.38 261.742 631.969 260.925C632.27 260.825 632.581 260.746 632.896 260.666C634.278 260.316 635.731 259.948 636.672 257.689C627.379 259.114 618.205 261.226 609.225 264.007C604.907 265.393 600.512 266.626 596.118 267.859C595.906 267.921 595.697 267.997 595.49 268.072C594.413 268.464 593.399 268.833 592.494 267.088C591.415 265.008 592.957 263.776 594.576 263.082C599.433 260.925 604.213 258.922 609.071 256.919C612.512 256.215 615.627 254.402 617.937 251.757C610.781 253.122 603.703 254.871 596.735 256.996C591.183 258.922 590.104 257.535 587.405 251.988C584.707 246.441 588.022 244.438 592.417 242.744C600.076 239.662 607.786 236.503 615.547 233.268C619.721 232.418 623.306 229.767 625.339 226.026C614.135 229.196 603.224 233.32 592.725 238.352C591.607 238.799 590.515 239.376 589.434 239.946L589.433 239.947L589.432 239.947C588.65 240.36 587.874 240.77 587.097 241.126C585.478 241.977 583.479 241.519 582.394 240.047C580.929 238.044 582.471 236.58 583.859 235.656C586.292 234.136 588.876 232.871 591.569 231.881C595.073 230.48 598.577 229.159 602.081 227.839L602.083 227.838L602.083 227.837L602.084 227.837L602.085 227.837L602.086 227.837L602.086 227.836L602.087 227.836L602.088 227.836L602.089 227.836L602.089 227.835L602.09 227.835C606.293 226.251 610.496 224.666 614.699 222.944C615.187 222.754 615.696 222.578 616.209 222.401C619.016 221.431 621.953 220.416 622.409 216.704C620.114 214.999 618.269 216.031 616.427 217.06C615.855 217.38 615.283 217.699 614.699 217.937L612.995 218.653C612.044 219.053 611.093 219.453 610.142 219.852C601.388 223.531 592.596 227.226 583.859 231.033C579.927 232.805 577.691 231.958 575.532 228.029C567.822 213.545 567.822 211.388 583.242 204.146C585.737 202.985 588.314 202.006 590.952 201.219C592.345 200.356 594.108 200.356 595.501 201.219L586.712 206.689C585.952 207.234 585.069 207.662 584.167 208.1C582.138 209.084 580.016 210.114 579.002 212.621L581.006 214.007C585.413 211.059 590.417 209.503 595.422 207.947C600.75 206.29 606.078 204.633 610.69 201.296C613.839 199.019 615.649 200.467 618.195 202.504L618.195 202.504C618.578 202.811 618.978 203.13 619.402 203.453C614.384 206.155 609.135 208.202 603.949 210.224C594.791 213.796 585.831 217.291 578.693 224.177C580.312 226.103 581.469 226.026 582.702 225.024C590.062 219.141 598.733 216.316 607.404 213.49C612.358 211.875 617.313 210.261 622.023 208.075C624.361 207.022 627.119 207.842 628.5 210.001C636.916 218.356 645.935 226.081 655.485 233.114C664.828 240.217 670.736 250.932 671.753 262.62C673.23 279.076 679.116 294.83 688.792 308.228C693.009 314.657 695.382 322.117 695.654 329.799C697.724 351.737 696.135 373.866 690.951 395.284C689.347 401.044 688.773 407.043 689.255 413.003C690.637 426.595 689.883 440.321 687.019 453.68C684.261 466.035 679.015 477.7 671.599 487.963C664.241 500.782 652.409 510.438 638.369 515.081C635.404 516.169 632.326 516.918 629.194 517.316C625.003 517.719 621.042 519.415 617.86 522.169C604.029 533.567 584.978 536.274 568.516 529.18C563.439 527.971 558.288 527.096 553.096 526.56C550.13 525.797 547.365 524.296 544.622 522.806L544.622 522.806L544.621 522.806L544.621 522.806L544.62 522.806L544.62 522.805L544.619 522.805L544.618 522.805L544.618 522.805L544.617 522.805C540.162 520.385 535.765 517.998 530.66 518.856C527.21 519.436 523.733 519.396 520.258 519.357H520.257C515.422 519.301 510.589 519.246 505.834 520.859C503.135 521.784 500.668 519.627 498.972 516.314C508.814 513.595 518.629 514.235 528.731 514.893C535.802 515.354 543.014 515.825 550.475 515.158C547.983 512.719 544.54 511.506 541.068 511.846C533.069 512.406 525.088 512.097 517.116 511.788H517.115H517.114H517.113H517.112H517.111H517.109H517.108H517.107H517.106H517.105C508.638 511.459 500.181 511.132 491.724 511.846C485.556 512.308 482.087 509.766 481.547 505.374C480.93 499.673 482.935 497.208 489.874 495.667C516.276 490.026 543.213 487.262 570.212 487.424C576.071 487.512 581.926 487.099 587.714 486.191C565.771 484.748 543.766 484.465 521.793 485.344C523.373 482.578 526.316 480.872 529.503 480.875C547.109 477.975 564.875 476.148 582.702 475.406C584.752 475.261 586.802 475.133 588.852 475.005C595.515 474.589 602.177 474.173 608.839 473.171C599.812 471.176 590.785 471.91 581.522 472.663C572.905 473.363 564.084 474.08 554.869 472.632C572.642 467.538 589.988 466.725 606.996 465.928H606.996C618.026 465.41 628.912 464.9 639.679 463.233C633.702 463.11 627.638 463.358 621.531 463.608L621.529 463.608C608.57 464.138 595.414 464.677 582.471 461.692C591.888 455.692 602.406 454.439 613.328 453.138C620.916 452.235 628.698 451.308 636.441 448.75C623.217 448.716 610.006 449.54 596.889 451.215C598.492 445.693 603.212 441.642 608.916 440.891C619.57 438.997 630.335 437.787 641.144 437.271C644.955 437.516 648.755 436.66 652.092 434.805C644.039 433.809 636.443 434.49 629.068 435.151C621.616 435.819 614.389 436.467 607.143 435.345C618.719 428.942 631.347 425.997 644.005 423.044C649.473 421.769 654.946 420.492 660.342 418.935C644 419.784 627.834 422.71 612.232 427.641C611.87 425.379 612.783 423.941 613.599 422.656C614.173 421.752 614.699 420.923 614.699 419.936C615.624 414.852 619.402 413.157 624.182 412.232C636.749 409.69 649.779 406.917 662.732 403.219C655.793 403.219 648.777 403.681 641.838 404.451C637.648 404.917 633.486 405.719 629.336 406.519C626.612 407.044 623.894 407.568 621.175 407.995C620.85 408.047 620.508 408.125 620.159 408.205C618.436 408.598 616.548 409.03 615.778 406.531C614.853 403.527 616.781 401.986 619.479 401.447L641.221 397.595C644.459 397.086 647.697 396.661 650.934 396.236L650.935 396.236C653.094 395.952 655.253 395.669 657.412 395.361C657.019 391.894 655.071 392.037 653.406 392.159C653.11 392.181 652.823 392.202 652.555 392.202C642.762 392.708 633.02 393.944 623.411 395.9C622.924 395.994 622.379 396.172 621.806 396.358L621.806 396.358C619.573 397.086 616.929 397.947 615.701 394.513C614.456 391.03 617.484 390.208 620.116 389.494C620.744 389.323 621.349 389.159 621.869 388.966C624.812 387.887 627.879 387.167 630.952 386.445ZM423.021 222.218L423.021 222.219C424.395 226.155 425.049 228.025 426.199 228.411C427.241 228.76 428.69 227.893 431.451 226.242C431.808 226.029 432.186 225.802 432.589 225.564C442.085 218.65 452.936 213.82 464.431 211.388C460.702 215.443 456.046 218.535 450.861 220.402C444.746 223.205 438.955 226.667 433.591 230.725C431.047 232.574 429.119 234.038 431.124 237.428C432.839 240.328 434.61 239.337 436.438 238.315C436.747 238.142 437.057 237.969 437.369 237.813C438.796 237.072 440.185 236.302 441.576 235.531C444.092 234.136 446.616 232.736 449.396 231.496C455.302 228.698 461.208 226 467.136 223.293L467.139 223.292C470.187 221.9 473.241 220.505 476.304 219.092C466.184 227.257 455.195 234.284 443.537 240.047C435.827 243.668 435.827 244.824 438.757 252.682C439.857 256.829 441.49 260.817 443.614 264.546C447.945 262.98 452.034 260.961 456.15 258.93C463.169 255.465 470.266 251.962 478.772 250.602C476.225 253.545 472.995 255.82 469.365 257.227C463.311 260.767 457.149 264.092 450.969 267.426L450.967 267.427L450.946 267.439L450.924 267.45L450.902 267.462C449.707 268.107 448.511 268.752 447.315 269.4C446.162 269.887 445.31 270.893 445.02 272.11C444.731 273.328 445.039 274.61 445.85 275.563C447.161 278.028 449.242 277.566 451.247 276.487C453.062 275.516 454.849 274.503 456.638 273.49L456.639 273.49L456.639 273.49L456.64 273.489L456.64 273.489L456.641 273.489L456.641 273.489L456.642 273.488L456.642 273.488L456.643 273.488C459.108 272.091 461.577 270.694 464.123 269.4C468.266 267.293 471.929 265.803 475.823 264.219L475.824 264.219L475.825 264.219L475.826 264.218L476.536 263.93C480.288 261.405 484.735 260.112 489.257 260.232C486.185 262.001 483.178 263.741 480.216 265.454C472.474 269.934 465.042 274.234 457.569 278.413C454.46 279.985 451.601 282.01 449.088 284.422C447.192 286.641 447.192 289.908 449.088 292.126C450.385 293.873 451.889 293.065 453.266 292.323C453.772 292.051 454.261 291.788 454.716 291.664C459.829 289.572 464.911 287.388 469.981 285.208L469.981 285.208L469.982 285.208L469.982 285.208L469.983 285.208L469.983 285.208L469.984 285.207L469.984 285.207L469.985 285.207L469.985 285.207C472.942 283.936 475.895 282.666 478.849 281.418C479.278 281.237 479.707 280.999 480.139 280.759C481.729 279.878 483.369 278.968 485.248 280.724C485.248 282.223 484.083 282.709 482.985 283.168L482.985 283.168L482.984 283.168L482.984 283.169L482.984 283.169C482.727 283.276 482.474 283.381 482.241 283.498C472.104 288.21 462.29 293.589 452.866 299.599L452.649 299.744C449.96 301.531 447.596 303.102 449.474 307.303C454.287 306.486 458.793 304.54 463.294 302.595C469.824 299.775 476.344 296.958 483.783 297.596C477.513 301.18 471.053 304.421 464.431 307.303C457.192 309.378 450.897 313.898 446.621 320.092C452.051 318.988 456.977 317.044 461.859 315.118C468.9 312.34 475.85 309.597 484.091 309.461C480.195 312.702 475.646 315.067 470.753 316.394C465.433 318.126 460.273 320.317 455.333 322.943C452.088 324.133 449.486 326.621 448.154 329.809C446.823 332.997 446.882 336.595 448.317 339.737C449.764 339.077 451.186 338.404 452.594 337.738L452.595 337.738C457.263 335.529 461.774 333.395 466.513 332.033C468.613 331.43 470.597 330.344 472.624 329.235C476.548 327.088 480.629 324.854 486.019 325.87C483.633 328.373 480.706 330.296 477.461 331.494L477.457 331.496C468.052 336.195 458.647 340.894 449.396 345.824C445.541 347.904 441.686 350.523 442.997 356.686C445.261 355.717 447.43 354.767 449.541 353.842C453.471 352.12 457.2 350.486 460.961 348.982C469.172 345.68 471.883 344.589 474.609 344.553C475.953 344.536 477.3 344.774 479.311 345.13C474.495 348.028 469.331 350.165 464.108 352.325L464.108 352.325C454.198 356.424 444.081 360.609 435.75 370.245C443.968 368.946 451.995 366.643 459.651 363.389C467.209 360.445 475.213 358.804 483.32 358.535C481.16 360.498 478.486 361.807 475.61 362.31C463.852 365.67 452.359 369.893 441.224 374.945C434.694 376.974 429.697 382.26 428.04 388.889C429.406 388.368 430.73 387.86 432.024 387.363L432.027 387.362L432.037 387.358L432.041 387.357C436.291 385.725 440.216 384.219 444.231 382.803C449.474 380.954 454.1 379.336 459.111 377.718C464.115 376.252 469.318 375.576 474.531 375.715C460.355 379.861 446.638 385.436 433.591 392.356C442.644 390.444 451.813 389.131 461.039 388.427C456.185 390.346 451.305 392.125 446.437 393.9L446.436 393.901L446.435 393.901L446.434 393.902L446.433 393.902L446.431 393.903L446.43 393.903L446.429 393.904L446.428 393.904L446.427 393.905C436.838 397.401 427.297 400.88 418.094 405.376C413.366 407.211 410.92 412.438 412.543 417.24L445.619 407.61C443.553 410.832 440.272 413.082 436.521 413.85C435.286 414.282 434.052 414.716 432.819 415.149L432.816 415.15C426.35 417.422 419.927 419.678 413.776 421.554C411.476 422.081 409.488 423.519 408.267 425.537C407.046 427.556 406.697 429.983 407.3 432.263L422.72 427.795C427.861 425.629 433.412 424.603 438.988 424.79C438.339 428.421 435.943 428.778 433.637 429.121C433.203 429.186 432.773 429.25 432.357 429.335C423.501 431.288 414.871 434.154 406.606 437.887C401.66 440.193 397.814 444.34 395.889 449.443C407.351 447.475 418.7 444.903 429.89 441.739C429.04 444.269 426.769 446.055 424.108 446.284C412.928 449.135 401.98 452.833 391.109 456.685L390.607 456.863C383.937 459.224 383.854 459.253 380.392 466.623C393.479 462.257 407.093 459.666 420.869 458.919C413.293 459.332 406.332 462.02 399.347 464.717C390.694 468.058 382.005 471.413 372.065 470.475C367.67 470.475 364.818 474.712 367.208 477.177C371.454 483.35 378.712 486.74 386.174 486.037C391.545 484.413 397.142 483.659 402.751 483.803C400.41 485.905 397.721 486.68 395.042 487.452C392.517 488.18 390.001 488.905 387.794 490.737C388.851 491.209 389.788 491.602 390.637 491.957L390.637 491.957C392.14 492.587 393.368 493.101 394.501 493.741C408.992 502.122 426.537 503.372 442.072 497.131C448.309 494.809 454.923 493.66 461.578 493.741C471.368 493.439 481.128 492.513 490.799 490.968C500.825 490.064 510.392 486.352 518.401 480.259C525.311 474.239 533.689 470.146 542.687 468.395C556.955 467.596 570.688 462.701 582.24 454.297C590.234 448.209 596.635 440.28 600.898 431.184C607.99 413.661 611.604 394.926 611.538 376.023C612.523 360.98 609.879 345.92 603.828 332.11C599.741 322.789 595.27 313.698 590.798 304.607C587.922 298.257 586.05 291.5 585.247 284.576C584.751 281.301 585.009 278.082 585.267 274.874V274.873V274.873V274.872V274.872V274.871V274.871V274.87V274.87V274.869C585.53 271.589 585.792 268.318 585.247 265.008C583.174 256.158 579.906 247.631 575.532 239.662C567.989 227.435 563.103 213.76 561.191 199.524C560.312 188.701 557.871 178.062 553.944 167.937C550.007 155.177 542.711 143.709 532.819 134.733C529.837 132.295 527.01 129.682 524.164 127.051L524.163 127.05C521.342 124.442 518.502 121.817 515.471 119.325C505.133 111.777 497.725 100.89 494.5 88.5087C492.137 77.3393 482.75 69.0226 471.37 68.0159C462.689 66.813 454.404 63.6228 447.161 58.694C442.571 55.5576 437.629 52.9718 432.434 50.99C426.228 48.4425 419.237 48.6101 413.159 51.4523C397.739 58.0007 388.565 70.7894 378.079 85.7352C381.5 83.7525 384.071 81.2692 386.526 78.8979C389.604 75.925 392.5 73.1281 396.66 71.7139C396.66 75.5968 394.547 77.458 392.586 79.1845C391.98 79.7188 391.388 80.2402 390.878 80.8046C389.817 81.9778 388.403 83.6716 386.882 85.4931L386.882 85.4937L386.878 85.4982L386.878 85.4984C385.304 87.3835 383.617 89.4051 382.088 91.1281C378.356 95.4465 380.963 97.9866 383.393 100.353C383.824 100.773 384.249 101.188 384.632 101.606C387.177 104.379 389.567 103.763 392.342 101.606C396.144 98.5578 400.098 95.6873 404.087 92.7907C407.056 90.6353 410.045 88.4655 413.005 86.1975C410.34 90.6011 406.855 94.2189 403.291 97.9188L403.291 97.9191C399.124 102.245 394.849 106.684 391.649 112.622C396.696 111.662 400.156 108.904 403.409 106.31C405.373 104.743 407.263 103.237 409.382 102.222C413.23 100.378 417.294 97.9226 421.353 95.4702L421.353 95.47C423.231 94.3355 425.107 93.2017 426.96 92.1296L428.117 93.9015C426.278 95.2852 424.453 96.6756 422.629 98.0647C418.258 101.394 413.897 104.716 409.382 107.923C405.713 110.601 402.329 113.647 399.281 117.014C398.056 117.862 397.264 119.205 397.115 120.688C396.967 122.17 397.477 123.644 398.51 124.718C400.5 127.187 402.065 125.795 403.501 124.518C403.901 124.161 404.292 123.814 404.678 123.562C410.988 119.207 417.701 115.467 424.724 112.391C422.015 116.141 418.707 119.42 414.933 122.098C411.309 124.795 407.685 127.645 404.293 130.573C400.901 133.5 401.594 136.505 404.293 140.049C412.758 132.454 422.492 126.405 433.051 122.175C428.784 127.473 423.552 131.917 417.631 135.272C413.941 137.895 410.531 140.889 407.454 144.209C406.306 145.623 406.306 147.648 407.454 149.062C408.842 150.911 410.461 150.295 412.003 149.062L428.965 138.508C431.128 136.755 433.909 135.95 436.675 136.274C434.021 139.545 430.783 141.598 427.674 143.57C425.365 145.034 423.128 146.453 421.255 148.292C420.016 149.509 418.525 150.449 417.058 151.375C413.323 153.734 409.739 155.995 410.846 162.467L442.303 145.827C434.801 153.083 426.731 159.729 418.171 165.703C408.688 172.483 408.379 173.407 412.157 184.655C414.47 191.435 414.624 191.512 420.638 188.122C429.602 182.245 439.401 177.752 449.705 174.794C444.598 178.931 439.214 182.715 433.591 186.119C428.137 188.977 422.973 192.357 418.171 196.211C416.76 196.916 415.815 198.3 415.674 199.87C415.532 201.439 416.215 202.97 417.477 203.915C419.411 202.863 421.322 201.772 423.232 200.682C427.336 198.339 431.435 195.999 435.75 194.054C437.552 193.241 439.279 192.266 441.013 191.287C445.362 188.831 449.755 186.35 455.487 186.35C454.621 188.658 453.106 189.367 451.687 190.031C451.212 190.253 450.747 190.471 450.322 190.741C447.861 192.18 445.379 193.583 442.899 194.985L442.897 194.986L442.896 194.987L442.895 194.988L442.893 194.988C437.14 198.241 431.398 201.488 425.958 205.148C418.171 210.387 416.783 212.852 422.951 222.02L423.021 222.218ZM136.91 371.632C136.216 367.549 136.216 363.312 136.216 359.075C134.341 348.814 135.192 338.242 138.683 328.412C141.417 320 141.417 310.939 138.683 302.527C134.686 289.998 134.686 276.536 138.683 264.007C141.945 251.853 143.476 239.3 143.232 226.719C143.479 199.727 149.637 173.115 161.274 148.754C163.151 144.251 165.755 140.087 168.984 136.428C175.633 129.06 179.266 119.462 179.161 109.541C179.161 89.8954 190.34 76.4904 203.833 64.241C208.983 59.6983 214.682 55.8162 220.795 52.6849C228.787 48.8888 235.002 42.1539 238.142 33.887C244.542 15.8596 271.912 2.22344 290.185 8.61779C292.967 9.14277 295.6 10.2738 297.895 11.9305C301.692 16.1314 307.199 18.3723 312.852 18.0167C316.347 18.045 319.638 19.6612 321.796 22.408C335.723 35.1845 345.589 51.7666 350.169 70.096C351.964 79.5689 357.528 87.9089 365.589 93.2082C379.894 102.878 390.494 117.109 395.658 133.577C396.812 137.305 398.256 140.937 399.975 144.44C403.648 153.12 405.561 162.442 405.604 171.866C407.3 194.208 410.075 216.473 422.72 235.81C431.316 249.007 437.599 263.57 441.301 278.876C443.253 288.049 443.489 297.505 441.995 306.764C441.309 312.177 440.969 317.638 440.629 323.098C439.822 336.054 439.015 349.005 433.591 361.309C430.324 369.702 426.19 377.732 421.255 385.268C412.302 398.148 405.939 412.643 402.52 427.949C402.095 430.706 401.068 433.336 399.513 435.653C398.257 437.09 397.005 438.545 395.75 440.004C384.822 452.704 373.572 465.779 356.491 471.168C346.675 474.157 336.451 475.587 326.191 475.406C316.788 474.762 307.342 475.436 298.126 477.409C285.357 482.036 271.093 479.607 260.579 471.014C258.224 469.236 255.358 468.263 252.406 468.241C246.645 467.629 240.864 467.278 235.085 466.927H235.085C224.853 466.307 214.627 465.686 204.527 463.618C193.239 460.905 183.225 454.406 176.154 445.206C164.661 430.732 154.127 415.523 144.62 399.675C140.034 391.001 137.403 381.43 136.91 371.632ZM113.626 259.615C118.548 253.529 124.465 248.32 131.128 244.207C131.444 244.015 131.762 243.84 132.076 243.668C133.522 242.873 134.861 242.136 135.368 240.047C136.529 230.736 136.529 221.316 135.368 212.004C132.06 213.74 128.979 215.869 125.842 218.037L125.842 218.037L125.841 218.037L125.841 218.038L125.841 218.038L125.841 218.038L125.84 218.038L125.84 218.038C120.205 221.933 114.391 225.95 106.764 228.029C114.922 220.063 124.008 213.106 133.826 207.305C137.141 204.994 140.148 202.837 137.604 197.444C132.769 199.251 128.482 202.082 124.193 204.914C119.522 207.999 114.848 211.085 109.463 212.852C114.577 206.866 120.891 202.478 127.336 198C131.093 195.389 134.895 192.747 138.529 189.74C134.415 188.917 131.2 190.597 127.972 192.283C125.152 193.756 122.32 195.235 118.869 195.056C120.54 192.55 122.922 191.001 125.254 189.484C128.3 187.503 131.259 185.578 132.438 181.651C129.139 181.071 126.47 182.468 123.807 183.862C120.807 185.432 117.814 186.999 113.934 185.734C115.595 183.195 117.782 181.832 119.907 180.508C121.136 179.742 122.344 178.989 123.418 178.03C124.574 177.182 125.576 176.104 125.114 174.64C124.516 173.318 123.172 172.494 121.721 172.56C115.312 171.699 108.901 174.134 104.682 179.031C97.1139 187.168 91.0103 196.551 86.641 206.766C82.1612 219.332 75.0662 230.806 65.824 240.432C55.3932 250.73 46.1361 262.15 38.2222 274.484C29.194 288.726 24.235 305.163 23.8816 322.018C23.5623 339.88 19.3804 357.462 11.6227 373.558C1.99692 390.537 4.76273 411.83 18.4075 425.792C29.2605 438.272 35.9921 453.797 37.6825 470.244C38.7771 479.707 43.2043 488.473 50.1727 494.974C59.5437 503.847 68.6962 512.939 77.8487 522.031C83.0789 527.227 88.309 532.422 93.58 537.577C95.9007 540.199 98.6676 542.39 101.753 544.049C115.39 550.414 130.072 554.252 145.083 555.374C152.493 555.961 159.828 553.546 165.437 548.671C174.607 540.429 186.004 535.07 198.205 533.263C209.266 532.18 220.034 529.072 229.97 524.095C238.55 520.007 245.697 513.429 250.478 505.22C255.244 497.175 257.044 487.719 255.567 478.487C247.705 482.697 240.98 488.118 234.364 493.452C227.42 499.049 220.596 504.55 212.699 508.456C217.481 502.565 223.402 497.896 229.338 493.216C236.132 487.859 242.945 482.488 248.088 475.251C242.923 471.091 239.068 473.325 235.367 476.253C232.721 478.398 230.09 480.552 227.463 482.703L227.443 482.719L227.428 482.732L227.427 482.733L227.426 482.734L227.42 482.739L227.418 482.74L227.412 482.745L227.41 482.746C221.942 487.224 216.487 491.691 210.926 496.052C210.659 496.269 210.393 496.521 210.12 496.78C208.741 498.091 207.166 499.587 204.141 497.593L230.587 473.788C225.394 470.864 218.94 471.414 214.319 475.174C206.912 481.476 198.627 486.666 189.724 490.583C192.561 486.59 196.434 483.652 200.301 480.719C203.895 477.993 207.484 475.27 210.232 471.708C203.013 467.811 194.036 469.663 188.953 476.099C182.193 482.281 174.587 487.469 166.362 491.507C168.297 487.345 171.405 483.837 175.306 481.415C177.168 479.905 179.095 478.491 181.02 477.078C183.318 475.392 185.614 473.706 187.796 471.862C191.805 468.472 192.037 466.7 187.796 463.156C184.712 460.611 180.192 460.845 177.388 463.695C168.759 469.626 160.446 476.003 152.484 482.801C152.298 482.976 152.114 483.175 151.924 483.378C150.778 484.61 149.448 486.04 146.471 483.726C154.081 477.37 161.539 471.053 168.951 464.775C172.051 462.148 175.143 459.529 178.236 456.916C174.692 451.783 172.978 449.301 170.971 449.035C169.091 448.786 166.954 450.479 162.816 453.757C161.63 454.682 160.443 455.635 159.257 456.589L159.257 456.589C156.588 458.735 153.919 460.881 151.251 462.694C146.478 466.753 141.124 470.077 135.368 472.555C137.278 469.022 139.904 465.926 143.078 463.464L160.194 449.674C167.904 443.742 167.904 442.663 161.12 435.961C160.224 434.659 158.802 433.815 157.229 433.652C155.656 433.489 154.091 434.023 152.947 435.113C150.553 436.848 148.066 438.536 145.594 440.213L145.593 440.214C144.881 440.697 144.171 441.18 143.464 441.662L120.95 457.07C120.95 453.398 122.721 452.223 124.336 451.151L124.336 451.151C124.686 450.919 125.029 450.691 125.345 450.444C129.335 447.175 133.49 443.948 137.66 440.708C141.549 437.687 145.451 434.655 149.246 431.57C155.561 426.387 155.425 426.184 150.984 419.536L150.634 419.012C148.552 415.853 146.702 415.237 143.926 417.471C143.148 418.098 142.309 418.809 141.428 419.556C139.168 421.473 136.631 423.623 134.135 425.175C126.57 431.902 118.416 437.935 109.771 443.203C110.262 440.768 111.779 438.662 113.934 437.425C117.984 433.906 122.033 430.516 126.06 427.145L126.063 427.143C130.853 423.133 135.612 419.149 140.303 415.006C144.62 411.231 144.235 409.69 140.303 404.374C137.194 400.171 135.29 401.796 133.295 403.498C132.767 403.949 132.232 404.405 131.667 404.76C131.116 405.127 130.635 405.599 130.149 406.075C129.615 406.6 129.075 407.13 128.429 407.533C120.442 413.928 111.902 419.6 102.909 424.482C103.885 421.187 106.132 418.416 109.154 416.778C116.093 411.462 122.955 406.069 129.817 400.676C130.232 400.338 130.691 400.012 131.156 399.682C133.022 398.355 134.998 396.949 134.751 394.359C135.056 388.393 133.522 382.478 130.357 377.41C122.161 382.733 114.663 388.578 107.236 394.368C100.689 399.471 94.1982 404.531 87.3349 409.151C88.0466 407.195 89.3374 405.502 91.0357 404.297C93.2742 402.334 95.5096 400.369 97.7444 398.403L97.7461 398.402C106.826 390.417 115.895 382.441 125.114 374.714C125.337 374.523 125.553 374.339 125.761 374.162C131.526 369.248 131.65 369.142 129.046 359.922C122.384 363.681 116.131 368.122 110.388 373.173C104.739 377.795 98.3882 381.488 91.5754 384.113C102.549 373.969 114.276 364.672 126.656 356.301C128.588 355.475 129.814 353.547 129.74 351.448V338.582C124.598 340.282 120.532 343.371 116.549 346.397C112.411 349.541 108.363 352.616 103.295 353.99C111.103 345.874 119.532 338.378 128.506 331.571C132.972 329.127 134.869 323.706 132.901 319.014C130.453 320.465 128.051 321.842 125.684 323.199L125.683 323.199L125.683 323.2L125.682 323.2C121.266 325.732 116.967 328.197 112.701 330.955C106.546 334.934 100.731 338.574 94.7446 342.321L94.7435 342.322L93.58 343.05C98.0571 337.411 103.548 332.655 109.771 329.029C114.811 325.909 119.695 322.478 124.589 319.04C126.583 317.638 128.579 316.236 130.588 314.853C132.978 313.158 135.368 311.155 133.98 307.997C133.421 306.6 133.031 305.112 132.638 303.611C131.729 300.144 130.802 296.61 127.735 293.975L100.442 311.232L99.2083 309.461C104.619 304.746 110.337 300.397 116.324 296.441C126.733 290.509 132.901 282.882 131.051 270.401C131.051 270.084 130.838 269.794 130.553 269.405C130.352 269.132 130.117 268.811 129.894 268.398C124.973 271.04 120.488 274.365 115.983 277.704C111.031 281.375 106.054 285.065 100.442 287.889C100.063 285.238 101.547 284.242 102.902 283.333C103.2 283.133 103.493 282.936 103.757 282.728C106.077 280.886 108.379 279.026 110.677 277.169L110.678 277.168L110.678 277.168L110.678 277.168L110.678 277.168L110.679 277.168L110.68 277.166L110.683 277.164L110.684 277.163C116.558 272.417 122.413 267.686 128.506 263.313C133.612 259.999 136.032 253.799 134.52 247.905C131.209 249.142 128.536 251.162 125.834 253.203C122.308 255.867 118.733 258.569 113.626 259.615ZM422.607 520.194C422.933 525.013 423.26 529.831 423.26 534.65C424.307 554.107 424.126 573.611 422.72 593.046C422.758 593.379 422.758 593.715 422.72 594.048C421.958 613.466 421.949 613.465 403.633 611.379L402.982 611.305C380.469 608.685 358.264 606.451 335.134 605.604C325.58 605.31 325.483 604.736 324.026 596.075C323.955 595.65 323.88 595.206 323.801 594.741C320.706 571.572 320.343 548.119 322.721 524.865C324.247 512.016 326.826 499.313 330.431 486.885C331.274 482.683 334.793 479.543 339.066 479.181C344.993 479.114 350.882 478.232 356.568 476.561C358.987 475.456 360.663 477.261 362.206 478.923C362.384 479.115 362.56 479.305 362.736 479.489C376.819 493.22 394.711 502.4 414.085 505.837C419.713 507.069 422.257 509.612 422.257 514.773C422.362 516.58 422.485 518.387 422.607 520.194ZM263.277 479.797C261.254 481.283 261.251 483 261.249 484.591C261.249 485.061 261.248 485.521 261.195 485.96C260.222 500.396 252.732 513.606 240.841 521.861C233.528 527.237 225.578 531.688 217.171 535.112C213.186 535.967 210.256 539.367 210.001 543.432C207.043 566.26 207.563 589.403 211.543 612.075C212.622 618.393 213.548 619.009 220.024 617.776C225.068 616.863 230.095 615.794 235.121 614.725L235.126 614.724L235.13 614.723C240.702 613.538 246.274 612.354 251.866 611.382C256.381 610.639 260.933 610.298 265.496 609.956L265.505 609.956C267.562 609.802 269.622 609.647 271.681 609.456C273.441 609.507 275.14 608.803 276.348 607.522C277.556 606.242 278.158 604.506 278.003 602.753C279.431 585.407 279.971 567.999 279.622 550.597C278.728 533.538 276.145 516.609 271.912 500.059C270.9 492.654 267.918 485.657 263.277 479.797ZM516.088 537.192C517.142 545.935 517.682 554.733 517.707 563.54H517.938C518.277 585.291 517.144 607.04 514.546 628.639C514.16 634.417 513.004 635.11 507.299 633.801C503.676 632.982 500.067 632.138 496.46 631.295L496.45 631.293C491.231 630.072 486.017 628.853 480.776 627.714C477.18 627.311 474.534 624.158 474.762 620.55C473.374 599.335 473.374 578.052 474.762 556.837C475.18 547.415 476.383 538.04 477.585 528.674C477.936 525.94 478.286 523.207 478.617 520.474C479.311 515.081 480.236 514.773 485.248 517.007C488.498 518.419 491.54 520.255 494.588 522.095C499.856 525.274 505.141 528.463 511.539 529.488C515.317 530.489 516.088 534.033 516.088 537.192ZM284.065 586.939L284.065 586.943V586.944V586.945V586.945C283.917 590.832 283.767 594.751 283.631 598.67C283.631 606.374 283.631 607.145 291.341 606.914C299.051 606.682 305.297 606.297 312.236 605.758L312.396 605.745C319.186 605.218 319.937 605.16 318.789 597.669C315.803 574.043 315.648 550.146 318.326 526.483C318.616 523.594 318.97 520.705 319.324 517.816L319.324 517.815C319.914 513 320.505 508.186 320.794 503.371C321.256 495.667 316.553 491.661 311.156 492.586C305.483 493.739 299.636 493.739 293.963 492.586C291.573 492.046 290.879 493.125 290.031 494.589C289.735 495.416 289.121 496.093 288.326 496.468C287.531 496.844 286.618 496.888 285.79 496.592C280.239 495.051 280.008 498.672 280.625 502.37C282.11 507.045 282.583 511.982 282.012 516.853C280.735 521.933 280.896 527.267 282.475 532.261C283.721 539.397 284.545 546.6 284.942 553.833C284.942 563.992 284.509 575.319 284.065 586.939ZM543.385 539.827C544.46 537.983 545.407 536.359 547.853 538.425V538.502C550.813 538.56 553.606 539.884 555.523 542.139C557.44 544.393 558.297 547.361 557.876 550.289C557.676 552.039 557.48 553.786 557.284 555.532V555.532C556.351 563.854 555.423 572.133 554.021 580.412C550.582 598.731 548.776 617.319 548.624 635.958C548.816 638.033 548.816 640.122 548.624 642.198C548.648 643.455 548.032 644.638 546.987 645.339C545.943 646.04 544.614 646.163 543.458 645.665C536.368 643.676 529.457 641.099 522.796 637.961C519.866 636.574 519.866 633.415 519.866 630.719C519.907 629.117 519.94 627.514 519.974 625.912C520.131 618.426 520.287 610.949 521.177 603.524C522.257 593.107 522.797 582.641 522.796 572.168C522.677 564.876 524.317 557.662 527.576 551.136C529.306 546.057 534.16 542.709 539.526 542.893C541.517 543.033 542.495 541.354 543.385 539.827ZM194.581 553.833C193.925 552.228 193.925 550.43 194.581 548.825C194.581 548.448 194.635 548.063 194.691 547.672C194.872 546.386 195.062 545.04 193.347 543.74C191.132 545.669 189.936 548.514 190.109 551.444C190.109 553.216 189.724 555.142 187.488 555.219C186.329 555.259 186.019 554.451 185.668 553.534C185.341 552.682 184.979 551.736 183.864 551.29C183.723 555.84 180.574 559.742 176.154 560.843C171.297 562.384 169.909 566.853 169.369 571.475C168.014 582.082 168.935 592.636 169.853 603.153C170.501 610.586 171.148 618.001 170.988 625.403C170.988 629.332 174.072 629.332 177.156 628.408C179.469 627.714 181.783 626.979 184.096 626.245C189.493 624.53 194.889 622.815 200.286 621.628C206.146 620.319 207.996 617.237 206.686 611.998C205.009 603.619 204.573 595.092 204.136 586.558C203.53 574.69 202.922 562.808 198.976 551.29C198.128 551.358 197.593 552.052 197.076 552.723C196.419 553.577 195.79 554.394 194.581 553.833ZM520.235 523.9C520.985 524.072 521.755 524.249 522.564 524.249C521.485 527.023 520.097 526.946 518.941 526.637C517.546 526.308 516.18 525.87 514.854 525.328C516.711 523.09 518.413 523.482 520.235 523.9Z" fill="black"/>
<path fill-rule="evenodd" clip-rule="evenodd" d="M249 99.4167L214 112C221.734 104.145 240.172 97.2051 249 99.4167Z" fill="black"/>
<path fill-rule="evenodd" clip-rule="evenodd" d="M207 132C215.119 122.78 227.412 117.339 235 119.455C226.046 125.652 215.347 126.257 207 132Z" fill="black"/>
<path fill-rule="evenodd" clip-rule="evenodd" d="M253 454C256.836 444.152 266.43 437.758 277 438.007L253 454Z" fill="black"/>
<path fill-rule="evenodd" clip-rule="evenodd" d="M215 156C206.736 161.705 198.042 166.721 189 171C195.758 163.109 204.928 157.819 215 156V156Z" fill="black"/>
<path fill-rule="evenodd" clip-rule="evenodd" d="M210 431C215.162 423.16 222.439 416.922 231 413C226.414 421.322 218.955 427.715 210 431Z" fill="black"/>
<path fill-rule="evenodd" clip-rule="evenodd" d="M268 79.114C258.926 83.0555 249.568 86.3595 240 89C247.382 81.9095 257.616 78.2961 268 79.114Z" fill="black"/>
<path fill-rule="evenodd" clip-rule="evenodd" d="M225 139L199 152C205.062 144.008 214.685 139.197 225 139Z" fill="black"/>
<path fill-rule="evenodd" clip-rule="evenodd" d="M216 396.657C216 397.561 215.523 398.69 214.888 399.293C209.912 404.185 204.605 408.764 199 413C201.472 405.44 206.825 399.023 214.014 395L216 396.657Z" fill="black"/>
<path fill-rule="evenodd" clip-rule="evenodd" d="M261 68C269.474 62.9563 279.061 59.8745 289 59C283.415 63.6829 276.071 65.9512 261 68Z" fill="black"/>
<path fill-rule="evenodd" clip-rule="evenodd" d="M266 460C269.997 453.173 276.962 448.408 285 447C279.759 452.638 273.267 457.08 266 460Z" fill="black"/>
<path fill-rule="evenodd" clip-rule="evenodd" d="M233 442C240.109 436.062 244.25 429.031 253 427C249.719 435.125 247.375 437.078 233 442Z" fill="black"/>
<path fill-rule="evenodd" clip-rule="evenodd" d="M205 180C200.429 185.39 194.58 189.518 188 192C190.832 184.963 197.489 180.264 205 180Z" fill="black"/>
<path fill-rule="evenodd" clip-rule="evenodd" d="M279 52.9029C284.837 48.5645 291.916 46.5542 299 47.2229C292.753 50.5165 285.954 52.4474 279 52.9029Z" fill="black"/>
<path fill-rule="evenodd" clip-rule="evenodd" d="M209 386C206.492 390.805 202.646 394.651 198 397C200.658 387.345 201.396 386.791 209 386Z" fill="black"/>
<path fill-rule="evenodd" clip-rule="evenodd" d="M194 202C194 202.588 194 203.469 194 203.836C190.235 207.435 186.471 211.181 182.028 215C181.802 211.716 182.946 208.483 185.201 206.035C187.455 203.587 190.629 202.131 194 202V202Z" fill="black"/>
<path fill-rule="evenodd" clip-rule="evenodd" d="M179 234C179.148 227.545 184.391 222.302 191 222L179 234Z" fill="black"/>
<path fill-rule="evenodd" clip-rule="evenodd" d="M283 40.1197C287.832 36.2462 294.105 34.9179 300 36.5197C294.686 39.1077 288.859 40.3414 283 40.1197Z" fill="black"/>
<path fill-rule="evenodd" clip-rule="evenodd" d="M423.753 222C422.839 219.601 422.305 217.125 424.896 215.5C436.46 208.319 448.416 201.809 460.705 196L462 198.399L423.905 221.613L423.753 222Z" fill="black"/>
<path fill-rule="evenodd" clip-rule="evenodd" d="M476 236C474.085 239.333 471.012 241.875 467.345 243.158C459.686 246.774 452.563 250.692 445.133 253.781C444.054 254.301 442.751 253.863 442.223 252.802C441.694 251.741 442.14 250.459 443.218 249.939C453.686 244.31 464.66 239.644 476 236Z" fill="black"/>
<path fill-rule="evenodd" clip-rule="evenodd" d="M419 471.244C404.398 470.236 390.974 475.975 377 479C389.368 470.924 404.514 468.127 419 471.244Z" fill="black"/>
<path fill-rule="evenodd" clip-rule="evenodd" d="M415 181C419.24 170.926 429.64 169.509 439 164C434.92 171.713 430.52 175.019 415 181Z" fill="black"/>
<path fill-rule="evenodd" clip-rule="evenodd" d="M401 83.8969L388.937 96.5425C387.655 97.8071 385.921 98.8345 384.564 97.0167C383.207 95.1989 384.564 93.6182 385.846 92.4327L399.568 82L401 83.8969Z" fill="black"/>
<path fill-rule="evenodd" clip-rule="evenodd" d="M132 228C120.25 238.81 107.53 248.517 94 257C99.32 248.725 124.4 229.366 132 228Z" fill="black"/>
<path fill-rule="evenodd" clip-rule="evenodd" d="M250 494.585L222 521C227.793 509.361 236.833 499.639 248.032 493L250 494.585Z" fill="black"/>
<path fill-rule="evenodd" clip-rule="evenodd" d="M654 339.402L618 349C628.338 341.196 641.234 337.757 654 339.402Z" fill="black"/>
<path fill-rule="evenodd" clip-rule="evenodd" d="M634 302C625.424 306.912 615.823 309.655 606 310C614.429 304.733 624.123 301.964 634 302Z" fill="black"/>
<path fill-rule="evenodd" clip-rule="evenodd" d="M591 249C600.698 244.069 611.169 240.692 622 239C612.749 244.869 602.063 248.316 591 249H591Z" fill="black"/>
<path fill-rule="evenodd" clip-rule="evenodd" d="M551 501.435C541.364 502.595 531.636 502.595 522 501.435C531.542 499.115 541.458 499.115 551 501.435Z" fill="black"/>
<path fill-rule="evenodd" clip-rule="evenodd" d="M509 501.389C502 504.497 494.167 504.753 487 502.109C494.123 499.673 501.749 499.423 509 501.389Z" fill="black"/>
<path fill-rule="evenodd" clip-rule="evenodd" d="M648.074 380.252C651.618 377.815 655.952 377.117 660 378.332C655.259 381.452 651.481 379.692 648 380.092L648.074 380.252Z" fill="black"/>
<path fill-rule="evenodd" clip-rule="evenodd" d="M563.238 499.957C564.118 499.957 565.158 499.957 565.238 500.597C565.318 501.237 564.198 502.117 563.318 502.037C562.438 501.828 561.58 501.534 560.758 501.157L563.238 499.957Z" fill="black"/>
<path d="M650.935 234.107C656.536 240.066 662.719 245.446 669.391 250.166C680.055 257.302 686.86 268.963 687.846 281.792C689.098 292.696 692.984 303.129 699.166 312.182C703.185 318.905 705.586 326.477 706.179 334.295C708.058 352.714 706.705 371.321 702.181 389.27C701.247 393.317 700.997 397.493 701.442 401.623C702.466 412.826 701.613 424.121 698.92 435.04C693.26 458.512 681.879 478.278 657.825 487.482C655.492 488.402 653.053 489.024 650.566 489.335C648.016 489.382 645.543 490.224 643.491 491.744C638.14 496.17 678.251 442.672 680.772 375.102C683.201 309.973 647.891 230.693 650.935 234.107Z" fill="#FFB31B" fill-opacity="0.469939"/>
</svg>
