<svg width="538" height="491" viewBox="0 0 538 491" fill="none" xmlns="http://www.w3.org/2000/svg">
<path fill-rule="evenodd" clip-rule="evenodd" d="M307.154 489.327C312.216 489.061 317.061 487.193 320.99 483.994C319.338 482.344 317.968 482.504 316.671 482.655H316.671H316.67H316.67L316.67 482.656L316.668 482.656C316.208 482.709 315.757 482.762 315.306 482.732C314.089 482.967 312.875 483.215 311.663 483.463L311.66 483.464L311.657 483.464L311.654 483.465C307.838 484.245 304.039 485.022 300.207 485.37C293.376 486.001 291.768 484.625 290.333 477.915C288.323 468.509 286.314 459.103 284.592 449.641C282.683 440.207 281.874 430.585 282.181 420.965C283.028 404.645 288.394 388.881 297.681 375.428C300.369 371.408 303.13 367.421 305.895 363.428L305.896 363.426C315.593 349.424 325.337 335.353 332.127 319.511C338.669 305.957 348.869 294.496 361.579 286.42C369.14 280.884 378.164 277.692 387.528 277.244C399.862 276.556 412.224 276.556 424.558 277.244C430.858 277.873 437.22 277.348 443.331 275.695C447.312 274.228 451.613 273.851 455.789 274.606C465.357 276.861 474.926 276.109 484.494 275.357C489.278 274.982 494.062 274.606 498.846 274.606C506.291 273.954 513.773 273.82 521.236 274.204C525.931 274.936 530.686 273.327 533.97 269.898C537.255 266.468 538.652 261.651 537.713 256.999C535.564 243.739 526.304 232.727 513.601 228.323C507.596 227.29 502.615 223.103 500.569 217.369C500.355 216.868 500.16 216.352 499.963 215.833L499.963 215.832L499.963 215.832L499.962 215.83C499.102 213.555 498.223 211.231 495.746 209.971C489.129 205.723 481.32 203.713 473.471 204.236C465.029 205.731 456.4 202.887 450.507 196.666C445.102 191.289 437.526 188.688 429.954 189.611C423.945 189.707 418.044 191.22 412.731 194.027C406.41 197.757 398.557 197.757 392.236 194.027C381.126 187.759 368.376 185 355.666 186.113C353.57 186.333 351.527 186.871 349.461 187.415C347.226 188.004 344.963 188.6 342.576 188.809C344.262 182.338 345.079 179.201 347.108 177.68C349.018 176.249 352 176.249 357.79 176.249H359.627C373.807 176.249 387.93 175.905 402.053 174.586C423.295 172.578 444.594 169.94 462.334 155.545C466.589 152.598 471.624 150.982 476.801 150.9C478.027 150.771 479.253 150.645 480.48 150.519C489.127 149.627 497.769 148.736 506.367 147.229C521.638 144.591 528.068 135.816 526.403 120.389C526.015 114.661 524.026 109.157 520.662 104.503C519.336 102.757 518.191 100.884 517.045 99.0072C516.157 97.5536 515.267 96.0973 514.29 94.6957C511.116 90.2803 509.519 84.9282 509.754 79.4977C509.808 76.2809 509.297 73.0892 508.785 69.8875C508.201 66.2392 507.615 62.5778 507.86 58.8514C507.954 57.6513 507.584 56.4608 506.826 55.525C502.178 50.0309 497.027 44.9814 491.44 40.4417C482.845 35.1781 472.772 32.8436 462.735 33.789C453.385 34.4658 444.009 32.872 435.408 29.1436C429.553 26.0306 423.999 22.3828 418.817 18.2469C398.253 3.52654 372.771 -2.64206 347.743 1.04164C329.989 2.85523 312.895 8.74357 297.796 18.2469C291.25 22.7928 282.903 23.8832 275.406 21.1718C273.11 20.4071 270.762 19.8464 268.415 19.2856C267.241 19.0052 266.068 18.7248 264.9 18.419C234.817 10.906 206.17 27.3657 191.186 47.6679C185.674 55.1809 184.813 56.0412 175.685 53.0016C169.915 51.2689 163.912 50.4371 157.888 50.5355C149.173 50.8369 140.547 52.4017 132.283 55.1809C114.36 59.6448 99.682 72.4508 92.8421 89.5915C88.697 100.415 80.1381 108.965 69.3039 113.105C53.918 119.07 48.177 139.946 52.8272 152.735C53.8205 155.152 55.5472 157.198 57.7645 158.585C64.8285 163.919 72.9703 163.008 80.5192 162.164L80.8275 162.13L81.2452 162.083C84.7742 161.687 88.3004 161.28 91.8263 160.872L91.8357 160.871C104.138 159.45 116.436 158.029 128.838 157.093C144.434 155.975 160.089 155.975 175.685 157.093C179.36 156.905 182.676 159.287 183.665 162.829C188.069 176.655 190.202 191.104 189.98 205.612C180.756 196.268 167.711 191.733 154.673 193.339C148.807 193.62 143.203 190.897 139.804 186.113C135.531 180.885 128.892 178.184 122.179 178.944C101.454 180.834 82.7349 192.096 71.3707 209.512C65.1704 218.172 59.0275 225.915 47.5455 226.718C36.982 227.75 31.8725 234.919 28.6001 243.923C27.6541 246.461 26.9055 249.069 26.3611 251.723C25.4629 257.526 21.3101 262.299 15.6829 263.996C12.1473 265.3 8.89325 267.266 6.09537 269.788C1.33968 273.115 -0.929133 278.985 0.354357 284.642C2.87243 290.545 8.80805 294.254 15.2236 293.933C18.0388 293.933 20.854 293.869 23.6671 293.805C29.2869 293.678 34.8982 293.551 40.484 293.933C53.9426 294.773 67.4534 293.848 80.6711 291.18C90.1979 289.755 99.6448 287.841 108.974 285.445C114.773 283.667 115.921 284.642 116.61 290.377C117.965 301.63 125.565 311.153 136.244 314.981C139.86 316.571 143.422 318.221 146.985 319.872L146.986 319.873C153.833 323.046 160.685 326.221 167.934 328.974C178.472 332.825 187.802 339.395 194.975 348.015C196.301 349.627 197.782 351.106 199.395 352.431C205.802 357.527 209.93 364.95 210.877 373.077C212.634 384.91 215.165 396.616 218.455 408.118C221.001 418.369 221.816 428.971 220.867 439.489C219.991 452.237 218.438 464.93 216.216 477.513C214.896 484.969 213.461 486.173 206.227 486.173H184.526C184.251 486.173 183.957 486.146 183.659 486.118C182.404 486.001 181.084 485.878 180.852 487.779C180.565 490.13 182.689 490.589 184.526 490.589C194.762 491.144 205.023 491.01 215.24 490.188C228.721 488.553 242.349 488.553 255.829 490.188C272.927 491.507 290.111 491.219 307.154 489.327ZM376.218 151.358C373.212 153.457 369.45 154.167 365.885 153.308C359.841 152.997 353.783 153.46 347.858 154.685C339.779 155.522 331.623 155.213 323.631 153.767C315.6 152.849 307.491 152.849 299.461 153.767C290.487 154.318 281.513 154.239 272.539 154.159H272.538C263.773 154.081 255.007 154.003 246.242 154.513C238.043 154.954 229.809 154.062 221.559 153.169C214.791 152.436 208.012 151.702 201.232 151.702C197.265 151.692 193.296 151.668 189.325 151.643C170.943 151.529 152.522 151.414 134.063 152.735C126.427 153.281 118.791 154.044 111.15 154.808L111.149 154.808L111.147 154.808L111.146 154.808L111.145 154.808L111.144 154.808L111.143 154.809L111.142 154.809L111.141 154.809C98.7329 156.049 86.3081 157.29 73.8393 157.61C71.4245 157.657 69.009 157.562 66.6056 157.323C62.5452 157.083 59.1193 154.219 58.1663 150.269C54.6069 138.512 57.4774 123.314 71.4281 117.579C83.5574 112.7 92.9931 102.835 97.32 90.5091C103.15 76.3535 114.969 65.5132 129.585 60.916C142.784 55.5124 157.298 54.1743 171.264 57.0735C180.299 59.4193 189.601 60.5761 198.936 60.5145C206.166 60.5259 213.307 58.919 219.833 55.8118C223.519 54.2771 227.373 53.1799 231.315 52.5428C239.851 50.3113 248.929 51.7019 256.403 56.3853C263.452 60.5661 271.584 62.5621 279.769 62.1204C289.34 62.0503 298.729 64.7385 306.81 69.8627C316.993 75.688 325.99 83.3725 333.333 92.5164C335.088 94.8232 337.094 97.0095 339.123 99.2207C342.137 102.507 345.203 105.848 347.571 109.722C349.21 111.928 351.675 113.377 354.403 113.736C357.945 114.757 361.579 115.43 365.253 115.743C378.744 116.145 385.232 125.665 390.973 135.644C394.417 141.953 392.178 145.853 385.232 147.688C381.999 148.254 378.926 149.506 376.218 151.358ZM351.188 170.972L356.527 171.489C376.111 172.139 395.716 171.18 415.142 168.621C429.306 167.476 442.896 162.521 454.468 154.283C460.802 149.613 468.321 146.811 476.169 146.197C483.42 145.705 490.635 144.621 497.816 143.542L497.818 143.541L497.821 143.541C499.849 143.236 501.875 142.932 503.898 142.641C515.38 141.035 518.94 136.906 520.26 125.436C520.936 118.475 518.878 111.524 514.519 106.051C514.342 105.801 514.165 105.551 513.987 105.301L513.96 105.263L513.924 105.212C507.572 96.2651 501.256 87.3687 503.037 74.967C504.367 68.6941 503.193 62.1503 499.765 56.7294C491.839 44.6102 477.929 37.7723 463.482 38.8932C455.786 40.0019 447.939 39.3749 440.518 37.058C431.595 33.3899 423.151 28.6524 415.372 22.9497C406.173 15.5791 395.445 10.3482 383.969 7.63699C354.672 1.78807 324.245 7.26054 298.83 22.9497C290.93 28.1844 280.982 29.2743 272.134 25.8746C247.735 17.1572 225.861 23.0644 206.399 39.1227C202.101 42.9108 198.09 47.0131 194.401 51.3957C192.449 53.5751 193.482 55.2383 196.238 55.7544H198.936C205.285 56.0275 211.606 54.7685 217.365 52.084C232.004 46.3489 246.701 42.9078 261.226 52.9442C265.6 55.7537 270.818 56.9504 275.98 56.3279C289.619 55.953 303.019 59.9527 314.215 67.7408C325.258 74.327 333.365 83.817 341.468 93.3025L341.469 93.303L341.469 93.3033L341.469 93.3036L341.469 93.304L341.47 93.3043L341.47 93.3046L341.47 93.3049C344.868 97.2819 348.264 101.258 351.876 105.019C354.53 108.274 358.373 110.338 362.555 110.754C364.992 110.754 367.476 111.081 369.88 111.398C370.137 111.432 370.394 111.466 370.65 111.5C380.294 112.819 395.336 126.87 397.116 136.275C397.406 138.368 397.406 140.491 397.116 142.584C396.599 148.319 394.532 150.326 388.791 151.416C387.904 151.589 386.991 151.658 386.079 151.726C383.979 151.884 381.883 152.041 380.122 153.48C375.805 156.831 370.335 158.337 364.909 157.667C358.447 157.667 355.913 157.667 354.598 158.933C353.75 159.749 353.409 161.093 352.848 163.302L352.848 163.303C352.548 164.485 352.184 165.916 351.647 167.646L351.636 167.777C351.581 168.445 351.51 169.306 351.188 170.972ZM358.077 280.685L358.594 282.692L356.297 284.183C355.37 284.896 354.485 285.576 353.638 286.226C336.249 299.575 335.309 300.296 325.181 321.461C317.221 336.995 307.985 351.843 297.567 365.851C286.142 382.081 277.416 399.401 276.784 419.761C276.256 430.896 277.144 442.054 279.425 452.967C281.147 460.881 282.755 469.082 284.247 476.882C285.74 484.682 284.764 486.173 276.956 486.173C266.112 486.146 255.28 485.457 244.52 484.108C238.803 483.442 233.035 483.327 227.297 483.764C221.556 484.625 220.809 483.764 221.556 478.029C222.012 474.27 222.43 470.529 222.848 466.791L222.848 466.791L222.848 466.79L222.848 466.789L222.848 466.789L222.849 466.788L222.849 466.788C223.693 459.235 224.537 451.692 225.689 444.02C227.547 427.536 225.804 410.846 220.58 395.1C218.866 387.796 217.543 380.407 216.618 372.962C215.981 367.609 214.007 362.501 210.877 358.108C199.708 342.043 184.17 329.505 166.097 321.977C153.873 318.409 142.26 313.014 131.651 305.977C126.574 301.707 122.861 296.044 120.973 289.689C119.308 285.273 121.26 283.093 126.312 282.807H131.709C139 282.061 144.511 283.266 145.774 292.098C146.463 296.972 150.941 299.381 155.304 300.815C164.132 303.879 172.268 308.654 179.244 314.866C183.352 318.463 188.313 320.95 193.654 322.092C203.143 323.956 212.322 327.142 220.924 331.555C236.482 339.641 246.472 324.788 244.807 313.317C244.234 308.748 242.895 304.309 240.845 300.184C239.643 297.782 238.523 295.36 237.326 292.77C236.521 291.03 235.682 289.215 234.76 287.28C240.837 286.672 246.662 284.542 251.696 281.086C258.757 276.383 259.446 270.132 253.705 263.881C249.828 258.893 245.035 254.689 239.582 251.493C235.72 249.646 232.879 246.178 231.832 242.03C230.412 238.087 228.482 234.347 226.091 230.904C223.107 225.49 217.348 222.193 211.164 222.359C208.443 222.459 205.729 222.011 203.184 221.04C197.796 219.426 194.229 214.318 194.573 208.709V193.339C194.385 184.321 192.975 175.369 190.382 166.728C187.684 157.782 188.832 156.463 197.673 156.463L198.151 156.477C206.476 156.724 209.874 156.825 211.253 158.545C212.204 159.731 212.194 161.686 212.179 164.99C212.171 166.562 212.163 168.44 212.255 170.686C212.203 178.802 212.76 186.911 213.92 194.945C216.177 209.178 225.21 221.431 238.147 227.807C248.481 232.911 258.642 229.7 268.574 225.226C282.582 218.688 291.998 207.562 300.839 195.748C308.099 187.296 314.146 177.877 318.808 167.761C319.443 164.95 321.2 162.521 323.672 161.038C326.144 159.554 329.116 159.144 331.898 159.904C335.487 160.248 339.101 160.248 342.691 159.904C348.145 159.961 349.121 161.337 346.824 166.384C343.152 173.615 339.931 181.066 337.18 188.694C335.637 192.032 332.542 194.393 328.912 195.002C318.852 198.586 310.469 205.755 305.374 215.133C301.595 221.303 296.085 226.228 289.529 229.298C275.977 235.505 267.961 249.717 269.665 264.512C270.182 272.082 272.593 274.606 280.056 275.294C282.468 275.753 284.821 275.753 287.405 275.753C287.966 278.683 286.614 280.836 285.323 282.893C284.896 283.574 284.475 284.244 284.133 284.929C281.009 291.112 279.062 297.821 278.392 304.715C277.53 312.572 281.492 316.3 289.529 315.554C300 314.524 308.062 308.68 316.087 302.861L316.125 302.834L316.684 302.429L316.909 302.266C317.102 302.126 317.295 301.987 317.488 301.847C323.304 297.707 328.095 292.292 331.496 286.018C332.996 282.285 336.873 280.075 340.854 280.685H358.077ZM360.775 190.931C352.279 189.954 344.946 193.249 337.52 196.585C334.91 197.758 332.289 198.935 329.601 199.935C320.384 203.169 312.8 209.88 308.474 218.631C304.922 225.761 298.753 231.246 291.251 233.944C279.08 238.761 275.177 248.626 274.028 260.325C273.339 268.469 276.382 271.279 284.707 270.362C303.513 268.335 322.529 269.577 340.911 274.032C353.273 276.994 366.142 277.15 378.572 274.491C386.856 272.914 395.291 272.28 403.718 272.598C418.74 273.726 433.842 273.13 448.727 270.82C452.512 270.013 456.425 270.013 460.209 270.82C469.98 272.89 480.06 273.045 489.89 271.279C500.683 269.027 511.756 268.427 522.729 269.501C528.929 270.362 531.226 267.207 531.57 260.784C531.593 248.685 523.69 237.996 512.108 234.46C504.566 233.23 498.176 228.232 495.172 221.212C491.41 212.205 481.766 207.147 472.208 209.168C462.263 210.848 452.135 207.447 445.225 200.107C439.774 195.122 432.221 193.129 425.017 194.773C420.211 195.357 415.557 196.835 411.296 199.132C404.743 203.143 396.492 203.143 389.939 199.132C387.815 198.042 385.634 196.952 383.452 195.977C376.438 192.411 368.642 190.657 360.775 190.873V190.931ZM247.907 279.022C243.979 281.998 238.91 283.032 234.128 281.832L200.888 280.455C194.557 280.205 188.277 279.224 182.172 277.53C173.815 274.853 164.891 274.477 156.338 276.441C147.965 278.583 139.445 278.18 131.053 277.783C127.764 277.628 124.494 277.473 121.26 277.473C120.784 277.473 120.314 277.41 119.842 277.346C118.891 277.219 117.933 277.09 116.897 277.473C102.073 282.837 86.6254 284.866 71.1407 286.9C67.2553 287.41 63.3676 287.921 59.4868 288.484C50.7754 288.877 42.0473 288.666 33.3652 287.854C30.3511 287.854 27.3371 287.768 24.3231 287.682L24.3199 287.681C21.3069 287.595 18.294 287.509 15.281 287.509C11.2049 287.509 7.18616 286.19 5.86573 281.774C4.5453 277.358 7.58803 274.319 10.9752 272.139C13.4731 270.481 16.1744 269.151 19.0126 268.182C26.077 265.885 31.177 259.717 32.1021 252.353C33.1189 246.703 35.8437 241.499 39.9099 237.442C42.1994 234.564 45.5504 232.724 49.2104 232.338C58.7373 231.708 67.2257 226.106 71.5429 217.599C79.6499 204.821 91.2699 194.647 105.013 188.292C116.004 181.797 130.022 183.695 138.885 192.88C143.588 197.631 150.325 199.775 156.912 198.616C167.244 196.983 177.632 201.2 183.895 209.57C185.077 210.955 186.223 212.331 187.362 213.699L187.363 213.7L187.365 213.703C189.101 215.787 190.819 217.85 192.621 219.893C196.149 224.564 201.752 227.202 207.605 226.947C216.135 226.127 223.91 231.866 225.632 240.252C227.877 247.154 232.629 252.965 238.951 256.54C243.072 259.548 246.711 263.164 249.744 267.265C254.164 272.311 253.361 274.95 247.907 279.022ZM306.178 180.665C303.451 179.382 300.293 179.382 297.567 180.665C289.976 182.933 281.82 182.383 274.602 179.116C267.441 176.079 259.762 174.444 251.983 174.299C242.51 173.84 233.152 172.636 229.823 161.165C228.827 157.686 226.05 157.981 223.4 158.262C222.687 158.338 221.983 158.413 221.326 158.413C218.664 158.413 218.372 160.569 218.089 162.667C218.042 163.013 217.995 163.357 217.939 163.689C217.508 172.071 217.796 180.475 218.8 188.809C219.173 199.487 223.853 209.56 231.775 216.738C239.207 225.553 251.64 228.282 262.087 223.391C268.336 221.132 274.159 217.836 279.31 213.642C286.493 207.691 292.949 200.915 298.543 193.454C301.864 189.704 304.454 185.366 306.178 180.665ZM155.591 281.602C159.624 280.384 163.858 279.974 168.049 280.398C172.517 280.165 177.082 281.266 181.777 282.4C185.167 283.218 188.624 284.052 192.162 284.413C202.036 285.158 211.968 285.732 221.843 286.133C225.484 285.987 228.916 287.833 230.799 290.951C234.821 296.571 237.707 302.922 239.295 309.647C240.029 312.569 240.281 315.591 240.042 318.594C239.066 327.024 232.923 331.383 225.459 327.655C215.273 323.152 204.802 319.32 194.113 316.185C188.387 314.313 183.178 311.132 178.9 306.894C174.694 302.516 169.376 299.364 163.514 297.775C159.743 296.729 156.213 294.956 153.123 292.556C150.55 290.806 149.264 287.696 149.85 284.642C150.148 282.386 151.996 282.152 153.797 281.923C154.423 281.844 155.043 281.765 155.591 281.602ZM289.759 311.023C290.351 311.079 290.947 311.079 291.538 311.023C307.384 307.034 320.858 296.648 328.74 282.348C330.922 278.505 328.051 277.473 325.525 276.613C316.593 273.931 307.117 273.614 298.026 275.695C296.83 275.815 295.743 276.441 295.04 277.416C289.083 285.738 285.241 295.382 283.845 305.518C283.386 309.59 285.51 311.195 289.759 311.023ZM297.801 174.427C294.373 175.244 290.876 176.077 287.118 176.077C284.265 176.179 281.419 175.731 278.736 174.758C271.241 171.524 263.13 169.958 254.968 170.17C250.132 170.247 245.349 169.165 241.018 167.015C238.836 165.639 236.827 163.459 237.458 161.28C237.99 159.443 239.746 159.521 241.316 159.591C241.609 159.604 241.895 159.617 242.166 159.617C257.498 157.75 272.931 157.984 288.297 158.217C296.061 158.334 303.809 158.452 311.517 158.298C316.34 158.183 316.799 158.699 315.536 163.632C314.273 168.564 312.436 172.521 306.178 172.922C303.362 173.103 300.605 173.76 297.801 174.427Z" fill="black"/>
<path d="M225.013 460.876C226.681 451.464 227.847 441.97 228.505 432.435C229.218 424.567 228.606 416.636 226.694 408.969C224.223 400.365 295.293 370.961 286.195 384.517C279.22 394.58 275.19 406.371 274.554 418.578C274.323 425.774 274.931 432.971 276.364 440.028C277.658 447.106 279.167 454.141 280.676 461.177C281.754 466.196 224.021 466.453 225.013 460.876Z" fill="#5CBD88" fill-opacity="0.588145"/>
<path d="M419.594 156.979C431.222 156.033 442.379 151.937 451.881 145.126C457.081 141.265 463.254 138.949 469.697 138.441C477.333 137.919 484.922 136.592 492.463 135.501C501.89 134.174 504.812 130.76 505.896 121.277C506.451 115.522 504.761 109.776 501.183 105.251C495.81 97.6177 490.248 90.1264 491.756 79.5531C492.848 74.3672 491.884 68.9573 489.07 64.4756C482.563 54.4563 471.142 48.8033 459.281 49.73C452.962 50.6466 446.52 50.1282 440.427 48.2128C433.101 45.1803 426.169 41.2637 419.782 36.5491C412.229 30.4556 403.422 26.131 394 23.8896C369.947 19.0542 344.966 23.5784 324.1 36.5491C322.032 37.9289 315.355 50.4044 331.78 64.4756C342.432 73.6011 374.569 81.5616 384.049 93.8323C405.799 121.984 412.027 157.983 419.594 156.979Z" fill="#FFB31B" fill-opacity="0.469939"/>
<path d="M218.52 277.122C222.787 278.197 227.311 277.271 230.817 274.605C235.684 270.959 236.401 268.596 232.456 264.077C229.749 260.404 226.502 257.166 222.824 254.473C217.181 251.271 212.94 246.067 210.937 239.887C209.4 232.377 202.461 227.238 194.849 227.972C189.625 228.2 184.625 225.838 181.476 221.654C178.812 218.624 176.352 215.543 173.688 212.41C168.098 204.914 158.828 201.138 149.607 202.6C143.728 203.638 137.716 201.719 133.518 197.465C125.609 189.239 108.576 191.288 98.7668 197.105C86.5015 202.795 76.1311 211.907 68.8959 223.349C65.0429 230.968 57.4674 235.984 48.9649 236.548C45.6986 236.895 42.7079 238.541 40.6646 241.119C37.0357 244.752 34.6039 249.412 33.6965 254.473C32.8708 261.067 28.3192 266.59 22.0146 268.647C19.4816 269.515 17.0707 270.706 14.8415 272.191C11.8185 274.143 9.10298 276.865 10.2814 280.819C11.4599 284.774 15.0464 285.955 18.6842 285.955C24.064 285.955 29.4439 286.263 34.8237 286.263C42.5722 286.991 50.3617 287.18 58.1363 286.828C75.403 284.312 92.8233 282.977 109.373 276.968C110.756 276.454 115.378 274.102 116.659 274.102C126.906 274.102 138.693 274.965 149.094 272.294C156.728 270.535 164.693 270.872 172.151 273.27C177.599 274.786 183.204 275.665 188.854 275.889L218.52 277.122Z" fill="#FFEBF2"/>
</svg>
