<svg width="381" height="662" viewBox="0 0 381 662" fill="none" xmlns="http://www.w3.org/2000/svg">
<path d="M255.962 444.345C261.325 444.445 266.681 443.887 271.91 442.683C289.608 439.142 305.406 429.224 316.329 414.795C319.158 410.823 322.909 407.605 327.257 405.419C334.294 401.968 340.594 397.171 345.804 391.297C352.057 385.082 355.164 376.351 354.251 367.562C353.252 361.476 354.247 355.23 357.086 349.761C365.414 331.604 365.296 314.158 351.829 298.256C347.687 294.532 346.883 288.323 349.939 283.659C354.981 275.023 353.493 264.043 346.335 257.076C340.116 248.76 332.017 242.048 322.708 237.494C318.235 235.46 314.381 232.265 311.545 228.238C307.387 222.962 304.624 216.716 303.511 210.08C302.803 205.393 301.917 200.765 300.794 196.196C298.487 184.952 293.524 174.431 286.323 165.518C281.905 160.754 277.083 156.386 271.91 152.464C265.759 147.62 261.242 140.99 258.974 133.476C256.437 124.528 250.802 116.784 243.085 111.64C239.218 109.274 236.615 105.287 235.997 100.781C235.406 97.0427 234.461 93.3044 233.93 89.5661C233.448 86.2385 232.431 83.0119 230.917 80.0128C228.023 74.0791 224.656 73.6044 219.753 77.58C217.636 79.1639 215.883 81.1878 214.614 83.5137C212.902 87.1926 211.248 90.8122 209.653 94.5505C205.636 104.222 200.852 113.242 190.101 117.099C188.884 117.633 187.734 118.31 186.675 119.116C180.108 122.352 175.555 128.636 174.507 135.909C173.824 143.515 168.295 149.79 160.863 151.396C155.925 152.883 151.369 155.434 147.514 158.872C143.431 161.883 141.451 166.995 142.434 171.986C144.56 181.064 139.894 186.998 133.574 192.22C129.679 195.221 125.458 197.769 120.992 199.815C115.433 202.783 110.84 207.294 107.761 212.81C100.826 223.867 96.7636 236.496 95.9474 249.54C95.9474 253.516 95.0024 257.55 94.5889 261.407C94.1257 265.94 91.7353 270.05 88.0324 272.681C82.8935 276.538 77.9909 280.811 73.0292 284.964C69.6731 287.946 67.0111 291.633 65.2322 295.764C64.2254 297.282 63.9036 299.157 64.3462 300.926C65.8773 305.689 65.3413 310.88 62.8695 315.226C59.4205 321.577 60.8471 329.484 66.2955 334.214C69.986 337.454 70.8098 342.896 68.2447 347.091C67.2405 349.108 66.768 351.363 65.7048 353.321C61.7173 361.4 60.2357 370.495 61.4519 379.43C61.5251 384.998 65.1069 389.907 70.3711 391.653C73.781 392.599 76.7633 394.694 78.8178 397.587C80.9442 401.028 83.6614 403.995 85.6106 407.556C87.8356 411.806 91.8909 414.784 96.5972 415.625C101.639 416.795 105.939 420.078 108.411 424.645C110.065 427.078 111.659 429.51 113.372 431.825C114.858 434.105 117.063 435.819 119.634 436.69C124.305 438.271 128.831 440.257 133.16 442.624C138.244 445.212 144.016 446.106 149.64 445.175C155.819 443.938 162.227 444.621 168.01 447.134C171.674 448.792 175.52 450.007 179.469 450.753C194.655 453.953 210.457 452.293 224.656 446.006C230.548 443.139 237.239 442.385 243.617 443.87C247.663 444.824 251.855 444.986 255.962 444.345Z" fill="#FFB31B" fill-opacity="0.469939"/>
<path d="M255.962 444.345C261.325 444.445 266.681 443.887 271.91 442.683C289.608 439.142 305.406 429.224 316.329 414.795C319.158 410.823 322.909 407.605 327.257 405.419C334.294 401.968 340.594 397.171 345.804 391.297C352.057 385.082 355.164 376.351 354.251 367.562C353.252 361.476 354.247 355.23 357.086 349.761C365.414 331.604 365.296 314.158 351.829 298.256C347.687 294.532 346.883 288.323 349.939 283.659C354.981 275.023 353.493 264.043 346.335 257.076C340.116 248.76 332.017 242.048 322.708 237.494C318.235 235.46 314.381 232.265 311.545 228.238C307.387 222.962 304.624 216.716 303.511 210.08C302.803 205.393 301.917 200.765 300.794 196.196C298.487 184.952 293.524 174.431 286.323 165.518C281.905 160.754 277.083 156.386 271.91 152.464C265.759 147.62 261.242 140.99 258.974 133.476C256.437 124.528 250.802 116.784 243.085 111.64C239.218 109.274 236.615 105.287 235.997 100.781C235.406 97.0427 234.461 93.3044 233.93 89.5661C233.448 86.2385 232.431 83.0119 230.917 80.0128C228.023 74.0791 224.656 73.6044 219.753 77.58C217.636 79.1639 215.883 81.1878 214.614 83.5137C212.902 87.1926 211.248 90.8122 209.653 94.5505C205.636 104.222 200.852 113.242 190.101 117.099C188.884 117.633 187.734 118.31 186.675 119.116C180.108 122.352 175.555 128.636 174.507 135.909C173.824 143.515 168.295 149.79 160.863 151.396C155.925 152.883 151.369 155.434 147.514 158.872C143.431 161.883 141.451 166.995 142.434 171.986C144.56 181.064 139.894 186.998 133.574 192.22C129.679 195.221 125.458 197.769 120.992 199.815C115.433 202.783 110.84 207.294 107.761 212.81C100.826 223.867 96.7636 236.496 95.9474 249.54C95.9474 253.516 95.0024 257.55 94.5889 261.407C94.1257 265.94 91.7353 270.05 88.0324 272.681C82.8935 276.538 77.9909 280.811 73.0292 284.964C69.6731 287.946 67.0111 291.633 65.2322 295.764C64.2254 297.282 63.9036 299.157 64.3462 300.926C65.8773 305.689 65.3413 310.88 62.8695 315.226C59.4205 321.577 60.8471 329.484 66.2955 334.214C69.986 337.454 70.8098 342.896 68.2447 347.091C67.2405 349.108 66.768 351.363 65.7048 353.321C61.7173 361.4 60.2357 370.495 61.4519 379.43C61.5251 384.998 65.1069 389.907 70.3711 391.653C73.781 392.599 76.7633 394.694 78.8178 397.587C80.9442 401.028 83.6614 403.995 85.6106 407.556C87.8356 411.806 91.8909 414.784 96.5972 415.625C101.639 416.795 105.939 420.078 108.411 424.645C110.065 427.078 111.659 429.51 113.372 431.825C114.858 434.105 117.063 435.819 119.634 436.69C124.305 438.271 128.831 440.257 133.16 442.624C138.244 445.212 144.016 446.106 149.64 445.175C155.819 443.938 162.227 444.621 168.01 447.134C171.674 448.792 175.52 450.007 179.469 450.753C194.655 453.953 210.457 452.293 224.656 446.006C230.548 443.139 237.239 442.385 243.617 443.87C247.663 444.824 251.855 444.986 255.962 444.345Z" fill="#5CBD88" fill-opacity="0.588145"/>
<path d="M181 521.909C182.562 527.057 183.66 532.498 184.263 538.085C185.046 547.624 185.731 557.196 186.318 566.8C186.807 576.784 186.807 586.809 186.318 596.793C185.829 608.102 185.568 619.411 184.98 630.72C184.98 632.391 184.98 634.063 184.785 635.637C184.589 637.21 185.274 638.046 186.351 637.948C187.427 637.849 187.819 637.603 188.537 637.603C193.957 636.81 199.409 636.612 204.849 637.013C210.33 637.948 215.844 638.095 221.162 639.668C223.511 640.308 223.707 639.668 223.674 636.227C223.642 632.785 223.674 629.195 223.674 625.655C223.58 613.029 224.093 600.409 225.208 587.894C226.415 574.815 227.23 561.736 228.699 548.558C229.645 539.954 230.297 531.3 231.015 522.646C231.407 518.024 231.015 517.729 228.242 517.729C226.657 518.176 225.031 518.176 223.446 517.729C220.358 516.425 217.06 516.881 214.18 519.008C204.164 523.925 194.018 527.367 183.545 521.712C182.736 521.076 181.762 521.152 181 521.909H181Z" fill="#FFB31B" fill-opacity="0.469939"/>
<path fill-rule="evenodd" clip-rule="evenodd" d="M236.789 590.821C246.14 582.422 254.379 572.855 261.305 562.356C262.335 560.672 262.095 558.503 260.721 557.087C255.439 549.561 253.245 540.287 254.592 531.183C254.885 527.603 254.885 524.006 254.592 520.426C254.154 511.572 254.592 503.084 265.026 499.498C267.799 498.474 268.31 496.059 268.821 493.571C270.766 485.603 276.624 479.178 284.362 476.521C284.758 476.365 285.17 476.226 285.583 476.086C287.306 475.503 289.056 474.911 289.762 473.082C293.034 464.694 300.729 462.631 308.077 460.661L308.149 460.642C312.588 459.954 316.463 457.255 318.656 453.324C320.655 450.311 323.696 448.147 327.193 447.251C333.55 445.191 339.01 441.007 342.662 435.396C345.318 431.754 349.166 429.164 353.534 428.079C357.547 426.615 359.955 428.445 359.663 432.835C359.443 435.364 358.802 437.837 357.766 440.153C353.847 449.892 353.106 460.626 355.65 470.813C357.328 477.292 357.328 484.092 355.65 490.571C354.285 494.508 355.028 498.873 357.62 502.132C365.663 512.329 364.978 526.912 356.015 536.305C351.525 541.04 347.334 546.05 343.464 551.306C340.364 555.879 335.982 559.251 331.582 562.637C328.94 564.671 326.291 566.709 323.91 569.015C322.894 569.987 321.441 570.051 319.993 570.115H319.993C319.152 570.153 318.312 570.19 317.562 570.405C314.417 571.335 311.122 571.722 307.847 572.107C303.903 572.571 299.989 573.031 296.402 574.43C293.176 575.458 289.655 574.888 286.916 572.893C282.903 570.259 280.495 571.795 277.576 574.503C270.3 581.637 263.523 589.266 257.292 597.334C249.923 605.634 243.51 614.741 238.175 624.482C235.328 629.269 233.957 634.794 234.235 640.361C234.458 645.837 238.65 650.322 244.085 650.898C251.57 653.263 258.637 656.794 265.026 661.362C260.883 662.631 256.392 661.987 252.768 659.606C238.457 652.494 222.984 648.032 207.092 646.435C203.729 646.435 200.309 646.032 196.934 645.635L196.899 645.631C196.477 645.581 196.056 645.532 195.636 645.483C173.656 643.436 151.492 644.893 129.967 649.801C119.92 651.499 110.119 654.423 100.781 658.509C100.72 658.539 100.658 658.57 100.596 658.602C99.4559 659.179 98.0391 659.896 97.2782 658.509C97.0523 657.839 97.1123 657.106 97.4439 656.482C97.7755 655.859 98.3492 655.4 99.0293 655.216C105.062 652.464 111.309 650.212 117.709 648.483C122.471 646.957 127.353 645.831 132.302 645.117C137.336 644.532 138.504 641.824 138.942 637.434C140.109 626.489 140.712 615.545 141.314 604.6L141.314 604.599L141.314 604.598L141.314 604.597C141.578 599.81 141.841 595.023 142.152 590.236C143.501 571.747 143.501 553.184 142.152 534.695C141.893 517.813 139.44 501.036 134.855 484.79C134.378 483.428 133.938 482.159 133.528 480.977C130.4 471.957 129.024 467.988 126.265 466.358C124.097 465.077 121.077 465.24 115.682 465.531H115.682C113.708 465.637 111.417 465.761 108.734 465.837C99.966 465.25 91.382 463.042 83.4147 459.325C73.4432 456.655 65.0655 449.876 60.3575 440.665C58.2327 435.54 53.8266 431.718 48.4641 430.347C39.0481 427.875 31.2789 421.215 27.377 412.273C24.8873 406.677 20.1785 402.379 14.3891 400.418C7.07528 397.623 2.03876 390.832 1.47419 383.003C-0.37224 372.708 0.741309 362.099 4.68468 352.415C4.97973 351.662 5.27232 350.906 5.56516 350.15C6.86553 346.791 8.1709 343.42 9.71931 340.195C11.6079 336.683 11.0499 332.353 8.33296 329.438L7.8222 328.779C-0.442086 320.816 -2.38328 308.297 3.07943 298.192C4.79317 295.044 5.36074 291.396 4.68468 287.874C3.10254 281.027 5.07909 273.841 9.93821 268.776C16.164 261.425 23.2154 254.82 30.9523 249.091C37.3144 244.189 41.1878 236.714 41.5324 228.675C42.393 210.066 47.7249 191.941 57.0741 175.843C61.0984 167.958 67.4064 161.479 75.1695 157.256C80.5732 154.495 85.7677 151.34 90.7112 147.816C98.1742 143.743 102.044 135.205 100.197 126.888C98.3794 118.799 101.715 110.422 108.588 105.814C114.425 101.139 121.047 97.5459 128.143 95.2031C134.238 93.7912 138.758 88.6401 139.379 82.3974C141.242 68.6686 150.855 57.2595 164.042 53.1272C172.681 48.8169 179.115 41.0628 181.772 31.7599C184.596 24.5473 188.038 17.5939 192.061 10.978C193.984 7.95462 196.459 5.32292 199.357 3.22142C201.96 0.592316 205.716 -0.531416 209.33 0.23778C212.943 1.00698 215.92 3.56384 217.234 7.02655C219.523 11.7795 221.144 16.828 222.05 22.0275C222.542 24.2025 222.902 26.4108 223.264 28.6299L223.264 28.6321C223.437 29.6975 223.611 30.7653 223.801 31.8331C224.739 37.7677 228.062 43.0572 232.994 46.4682C241.806 53.2559 248.471 62.4557 252.184 72.9577C255.705 83.1624 262.184 92.0805 270.791 98.5692C290.864 113.413 304.039 135.821 307.273 160.622C308.125 172.293 312.361 183.459 319.459 192.746C323.4 196.586 327.756 199.973 332.447 202.844C339.944 207.986 347.064 213.659 353.753 219.821C359.271 225.243 363.66 231.71 366.668 238.847C370.153 246.251 369.771 254.904 365.646 261.97C362.365 266.477 362.894 272.719 366.886 276.605C369.961 280.494 372.672 284.658 374.986 289.045C382.715 305.539 383.007 324.568 375.788 341.293C373.139 347.884 371.968 354.979 372.359 362.074C372.863 375.402 367.72 388.321 358.204 397.638C350.586 405.588 341.648 412.149 331.79 417.029C327.455 419.493 323.697 422.862 320.772 426.908C309.078 442.848 292.156 454.144 272.98 458.812C267.979 460.302 262.884 461.451 257.73 462.252C252.184 462.764 250.871 464.154 249.995 470.081C249.193 475.423 248.536 480.783 247.879 486.143C247.223 491.504 246.566 496.864 245.763 502.206C241.775 528.695 238.297 555.258 235.329 581.894C234.31 584.928 234.857 588.272 236.789 590.821ZM245.472 460.276C252.097 460.399 258.713 459.711 265.172 458.227C287.034 453.86 306.549 441.628 320.042 423.835C323.537 418.937 328.171 414.968 333.541 412.273C342.234 408.016 350.017 402.1 356.452 394.857C364.177 387.192 368.015 376.426 366.886 365.587C365.653 358.082 366.882 350.378 370.389 343.634C380.677 321.242 380.531 299.729 363.895 280.118C358.779 275.525 357.786 267.869 361.56 262.117C367.788 251.466 365.95 237.926 357.109 229.334C349.426 219.079 339.422 210.802 327.923 205.186C322.396 202.677 317.636 198.737 314.132 193.771C308.996 187.264 305.583 179.562 304.209 171.379C303.333 165.598 302.239 159.89 300.852 154.256C298.003 140.391 291.872 127.416 282.976 116.424C277.519 110.549 271.562 105.162 265.172 100.325C257.573 94.3518 251.994 86.1756 249.193 76.9092C246.058 65.8744 239.098 56.3248 229.565 49.9806C224.788 47.0636 221.572 42.1461 220.809 36.5895C220.472 34.4618 220.042 32.3341 219.612 30.2063C219.111 27.724 218.609 25.2416 218.255 22.7593C217.661 18.6557 216.404 14.6765 214.534 10.978C210.959 3.66048 206.8 3.07507 200.744 7.97784C198.128 9.93121 195.963 12.4271 194.396 15.2954C192.28 19.8323 190.236 24.296 188.266 28.906C183.305 40.8337 177.395 51.9563 164.115 56.7128C162.611 57.3711 161.19 58.2063 159.883 59.2007C151.77 63.1912 146.145 70.941 144.852 79.9094C144.008 89.2894 137.178 97.0282 127.997 99.0082C121.897 100.842 116.269 103.989 111.506 108.228C106.464 111.942 104.018 118.245 105.231 124.4C107.858 135.596 102.094 142.914 94.2866 149.353C89.4754 153.054 84.2616 156.196 78.7449 158.719C71.8778 162.38 66.2045 167.942 62.4006 174.745C53.8332 188.381 48.8156 203.955 47.8074 220.041C47.8074 223.227 47.3144 226.443 46.829 229.611C46.5674 231.318 46.3081 233.01 46.1292 234.676C45.557 240.265 42.6042 245.334 38.03 248.579C33.0477 252.312 28.2452 256.361 23.446 260.407L23.4453 260.407L23.4445 260.408L23.4438 260.409C22.129 261.517 20.8146 262.625 19.4967 263.726C15.3509 267.403 12.0627 271.95 9.86524 277.044C8.62147 278.917 8.22399 281.229 8.77076 283.411C10.6621 289.285 9.99993 295.686 6.94661 301.046C2.68607 308.877 4.44838 318.628 11.1786 324.462C15.7375 328.457 16.7551 335.168 13.5865 340.341C13.0042 341.509 12.5666 342.742 12.1303 343.971C11.6372 345.359 11.1458 346.743 10.449 348.025C5.52322 357.988 3.69307 369.204 5.19544 380.222C5.28589 387.089 9.71045 393.143 16.2133 395.296C20.4254 396.462 24.1094 399.046 26.6474 402.614C27.7988 404.474 29.0903 406.222 30.3808 407.968C32.0343 410.206 33.686 412.441 35.0384 414.907C37.7869 420.148 42.7964 423.822 48.61 424.859C54.8376 426.301 60.1504 430.35 63.2032 435.982C63.6719 436.67 64.1369 437.358 64.6006 438.045L64.6011 438.046L64.6016 438.047C66.1586 440.352 67.7022 442.637 69.3323 444.836C71.1673 447.649 73.891 449.762 77.0667 450.836C82.8369 452.786 88.4276 455.235 93.7758 458.154C100.056 461.346 107.186 462.448 114.133 461.3C121.766 459.775 129.682 460.617 136.826 463.715C141.351 465.76 146.103 467.258 150.981 468.179C169.74 472.125 189.26 470.078 206.8 462.325C214.078 458.789 222.344 457.859 230.222 459.691C235.22 460.868 240.398 461.066 245.472 460.276ZM141.933 493.571C140.585 485.255 138.131 477.158 134.637 469.496C136.34 468.369 138.519 468.257 140.328 469.203C163.75 477.619 186.442 472.496 208.843 465.179C215.282 462.013 222.659 461.335 229.565 463.276C233.11 463.941 236.746 463.941 240.291 463.276C246.493 463.276 247.369 463.715 246.493 470.594C246.204 472.909 245.921 475.225 245.637 477.54C244.342 488.101 243.048 498.654 241.312 509.157C239.27 521.357 237.792 533.5 236.317 545.622L236.317 545.624L236.317 545.624C235.42 552.987 234.525 560.342 233.505 567.698C231.012 586.323 229.866 605.105 230.076 623.896C230.076 625.654 230.068 627.42 230.059 629.184V629.185V629.187V629.188V629.188C230.043 632.708 230.027 636.218 230.076 639.629C230.149 644.752 229.711 645.703 224.457 644.752C216.762 643.236 208.884 642.61 200.96 641.979H200.959C196.637 641.636 192.301 641.291 187.975 640.8C175.808 640.203 163.615 640.497 151.492 641.678C150.668 641.678 150.037 641.774 149.292 641.888C148.585 641.996 147.776 642.119 146.603 642.19C144.195 642.337 142.663 641.093 143.101 638.751C143.538 636.409 143.538 633.922 143.538 631.434C144.311 621.533 144.831 611.633 145.351 601.733C145.715 594.803 146.079 587.873 146.53 580.942C147.625 566.084 147.625 551.164 146.53 536.305C145.217 522.012 143.684 507.767 141.933 493.571ZM295.161 571.137C298.22 570.322 301.346 569.783 304.501 569.527C316.519 569.445 327.901 564.099 335.657 554.892C342.954 547.208 349.302 539.013 355.577 530.671C361.508 522.854 361.049 511.909 354.482 504.62C350.864 501.126 349.61 495.837 351.272 491.083C353.106 483.881 353.106 476.332 351.272 469.13C348.754 459.692 349.632 449.665 353.753 440.811C354.434 439.298 354.9 437.697 355.139 436.055C355.723 433.421 354.555 432.323 351.928 433.201C348.516 434.439 345.63 436.816 343.756 439.933C340.445 445.075 335.433 448.884 329.601 450.69C325.888 451.834 322.624 454.111 320.261 457.203C317.282 461.572 312.635 464.511 307.419 465.325C300.936 465.891 295.214 469.8 292.315 475.643C290.885 478.031 288.581 479.764 285.895 480.472C278.274 482.695 272.707 489.257 271.739 497.156C271.464 499.948 269.621 502.335 266.996 503.303C259.519 506.18 255.49 514.325 257.73 522.036C258.532 526.07 258.532 530.223 257.73 534.256C256.154 541.179 258.25 548.427 263.275 553.428C271.062 560.21 279.818 565.785 289.251 569.966C291.024 570.737 292.936 571.135 294.869 571.137H295.161ZM239.698 613.487C237.942 615.723 236.175 617.975 234.381 620.238H234.089C234.089 618.259 234.081 616.273 234.073 614.289C234.056 610.329 234.04 606.38 234.089 602.529C234.458 598.965 236.561 595.814 239.707 594.114C248.694 586.048 256.658 576.906 263.421 566.893C265.113 564.437 265.971 563.193 267.063 562.933C268.183 562.665 269.551 563.433 272.323 564.99L275.898 567.039C277.868 568.356 277.722 569.893 275.898 571.576C270.733 576.557 265.86 581.834 261.305 587.382C253.7 595.654 246.799 604.444 239.698 613.487Z" fill="black"/>
<path fill-rule="evenodd" clip-rule="evenodd" d="M99 405.216C93.1225 407.296 86.5895 405.135 83.0855 399.954C78.6697 393.228 71.8538 388.466 64.0463 386.651C59.1409 385.675 54.8921 382.619 52.3872 378.266C49.8823 373.913 49.3643 368.685 50.966 363.921C52.5409 359.782 51.7621 355.111 48.9313 351.715C46.6746 347.764 46.379 342.98 48.1319 338.778C49.3176 331.937 52.191 325.503 56.4888 320.068C61.4399 314.941 62.1946 307.046 58.3055 301.065C55.4461 296.745 54.8242 291.307 56.6341 286.447C60.5046 278.97 68.4 274.498 76.7634 275.045C75.2373 278.773 71.5312 278.846 68.8425 280.307C59.6862 285.424 57.7242 289.809 62.593 299.164C66.6778 305.972 65.7886 314.676 60.4129 320.506C56.5907 325.236 53.9049 330.788 52.5647 336.732C50.2109 342.011 51.3381 348.202 55.3988 352.3C58.5962 355.223 56.7795 359.024 55.7621 362.386C53.7945 367.653 54.5282 373.556 57.7242 378.173C59.0967 380.255 61.115 381.823 63.465 382.632C68.1158 384.24 72.6213 386.213 77.1994 388.04C79.3155 388.731 81.1186 390.155 82.2862 392.06C85.4171 398.904 91.6427 403.804 99 405.216Z" fill="black"/>
<path fill-rule="evenodd" clip-rule="evenodd" d="M313.86 278C324.387 281.209 330.349 292.306 327.209 302.847C326.502 305.425 325.441 307.891 324.055 310.177C322.08 312.553 321.173 315.637 321.548 318.703C321.922 321.769 323.546 324.545 326.035 326.375C329.345 329.602 329.956 334.699 327.502 338.616C326.255 341.401 324.495 343.893 323.175 346.678C320.954 349.947 320.566 354.125 322.148 357.746C325.189 363.314 324.172 370.221 319.654 374.677C315.524 379.57 313.309 385.794 313.42 392.195C313.846 399.391 309.667 406.068 303.004 408.833C295.451 412.48 288.105 416.542 281 421C283.519 416.589 287.521 413.213 292.296 411.472C296.036 409.639 299.63 407.733 303.298 405.681C307.988 403.529 310.893 398.738 310.632 393.587C310.085 386.065 312.75 378.662 317.967 373.211C321.184 369.908 321.923 364.917 319.801 360.824C317.149 354.883 318.025 347.961 322.075 342.867C323.624 340.905 324.838 338.701 325.669 336.343C327.128 332.836 325.663 328.795 322.295 327.035C320.325 325.93 318.886 324.076 318.306 321.895C317.726 319.714 318.053 317.39 319.214 315.454C320.235 312.597 321.486 309.827 322.955 307.172C326.734 301.208 326.105 293.465 321.415 288.188C318.847 284.89 316.28 281.665 314.08 278.366L313.86 278Z" fill="black"/>
<path fill-rule="evenodd" clip-rule="evenodd" d="M151.909 120.075C152.423 123.063 150.661 124.01 148.825 124.593C143.055 126.487 139.533 132.27 140.528 138.222C140.528 142.084 140.528 145.947 140.528 149.81C141.102 153.359 138.982 156.794 135.535 157.899C133.993 158.336 132.598 159.357 130.982 159.867C127.136 161.025 124.509 164.55 124.52 168.54C124.52 171.236 124.52 174.005 124.006 176.775C123.815 180.814 121.171 184.333 117.324 185.666C102.639 192.08 99.9218 200.242 107.999 214.162C104.915 216.203 103.373 214.162 102.198 211.83C97.0854 201.492 101.185 188.994 111.45 183.626C117.188 182.055 120.944 176.602 120.335 170.726C119.356 163.242 124.294 156.255 131.717 154.62C137.517 153.089 139.059 150.684 137.517 144.781C136.235 139.406 136.593 133.774 138.545 128.602C140.416 122.986 145.986 119.432 151.909 120.075Z" fill="black"/>
<path fill-rule="evenodd" clip-rule="evenodd" d="M300.387 226C298.338 224.684 299.069 222.49 298.996 220.736C298.691 211.6 292.257 203.821 283.336 201.798C281.727 201.213 280.117 200.921 278.58 200.19C276.357 199.379 274.569 197.686 273.64 195.511C272.711 193.336 272.725 190.875 273.677 188.71C274.482 186.078 275.58 183.519 276.311 180.887C277.424 178.602 277.443 175.937 276.363 173.637C275.283 171.336 273.22 169.647 270.75 169.042C267.627 167.903 265.026 165.668 263.432 162.754C262.856 162.136 262.856 161.178 263.432 160.56C264.164 160.048 265.115 159.61 265.628 160.56C267.969 163.997 271.994 164.655 275.067 166.775C278.194 169.19 279.921 172.997 279.678 176.938C279.65 179.898 279.157 182.834 278.214 185.639C275.506 194.048 276.019 195.145 284.507 198.435C287.606 199.599 290.535 201.173 293.215 203.114C301.089 207.806 304.177 217.66 300.387 226Z" fill="black"/>
<path fill-rule="evenodd" clip-rule="evenodd" d="M216 69.1664C211.862 68.7719 207.887 67.3069 204.448 64.9078C202.127 62.3355 198.622 61.2771 195.317 62.1502C192.012 63.0232 189.437 65.6876 188.609 69.0917C186.792 73.3504 185.121 75.7412 180.181 74.0975C175.24 72.4538 173.569 75.2182 171.244 78.4309C168.61 82.9445 166.697 87.8633 165.577 93C162.743 93 162.816 90.8333 163.179 89.339C164.712 83.2848 167.598 77.6821 171.607 72.9768C173.519 70.4743 176.637 69.2899 179.672 69.9136C182.869 70.4366 184.395 68.8676 186.066 66.1779C189.291 59.6478 196.644 56.4843 203.431 58.7065C204.23 58.7065 205.247 59.2295 205.61 59.8273C207.935 63.8618 213.893 64.2353 216 69.1664Z" fill="black"/>
<path fill-rule="evenodd" clip-rule="evenodd" d="M236 427.551C232.837 431.17 227.465 432.058 223.255 429.657C221.764 428.858 220.273 428.132 218.857 427.261C213.539 422.455 205.318 422.455 200 427.261C200 421.961 202.832 420.509 206.559 420C211.332 419.972 215.995 421.393 219.901 424.066C224.059 428.277 230.402 429.65 236 427.551Z" fill="black"/>
<path fill-rule="evenodd" clip-rule="evenodd" d="M281.926 351C281.009 352.362 279.962 353.639 278.798 354.813C277.172 355.853 276.075 357.508 275.777 359.371C275.48 361.234 276.009 363.131 277.235 364.597C281.107 371.072 279.394 375.748 272.321 381C271.8 378.41 274.108 377.187 275.001 375.388C276.619 372.499 276.447 368.981 274.554 366.252C269.566 357.906 271.8 353.518 282 351.144L281.926 351Z" fill="black"/>
<path fill-rule="evenodd" clip-rule="evenodd" d="M280.922 352C281.505 350.396 281.869 348.64 282.597 347.113C285.049 342.705 284.162 337.092 280.484 333.749C279.756 332.985 278.663 332.451 279.1 331C288.936 335.582 289.665 343.829 280.849 351.847L280.922 352Z" fill="black"/>
<path fill-rule="evenodd" clip-rule="evenodd" d="M264 385C259.718 389.5 260.013 397.525 253 400C257.134 395.2 256.396 387.025 264 385Z" fill="black"/>
<path fill-rule="evenodd" clip-rule="evenodd" d="M313.926 278.094C310.641 278.697 307.285 278.697 304 278.094C308.741 274.574 308.741 274.574 314 278.094H313.926Z" fill="black"/>
<path fill-rule="evenodd" clip-rule="evenodd" d="M326 536C324.093 544.503 317.197 546.724 310.521 548.026C306.475 548.554 302.684 550.373 299.665 553.235C296.491 556.26 292.149 557.567 287.92 556.771C283.691 555.975 280.059 553.167 278.097 549.175C277.477 548.21 277.076 547.109 276.924 545.958C276.924 542.894 272.595 538.298 276.924 537.226C281.252 536.153 279.931 541.745 280.812 544.503C281.635 548.52 284.475 551.757 288.235 552.965C291.995 554.174 296.087 553.163 298.931 550.324C300.586 548.814 302.153 547.202 303.626 545.498C304.726 544.196 305.753 542.894 307.734 543.507C313.139 544.472 318.648 542.545 322.405 538.375C323.511 537.562 324.662 536.82 325.853 536.153L326 536Z" fill="black"/>
<path fill-rule="evenodd" clip-rule="evenodd" d="M326.151 537C326.681 533.472 328.131 530.132 330.366 527.29C334.851 522.826 335.654 516.014 332.323 510.696C331.645 509.609 330.817 508.304 332.323 507C337.832 510.945 339.582 518.14 336.463 524.029C333.773 528.898 330.234 533.285 326 537H326.151Z" fill="black"/>
</svg>
