<svg width="355" height="536" viewBox="0 0 355 536" fill="none" xmlns="http://www.w3.org/2000/svg">
<path d="M219.946 292.885C233.906 294.746 247.244 296.495 260.582 298.525C274.909 299.331 288.304 291.421 294.493 278.501C298.12 269.396 304.502 261.647 312.749 256.333C319.583 251.9 325.62 246.351 330.609 239.918C338.295 229.821 341.121 219.386 335.3 207.54C331.79 200.953 333.558 192.799 339.482 188.249C342.839 185.346 345.652 181.87 347.79 177.983C351.577 170.368 354.911 162.302 349.825 154.236C343.651 144.756 342.113 132.996 345.642 122.253C345.982 121.125 346.264 119.996 346.49 118.868C348.345 111.647 345.247 104.064 338.86 100.197C334.741 97.1831 330.374 94.5224 325.805 92.244C321.395 90.4179 318.178 86.5312 317.214 81.8651C314.796 73.8804 311.909 66.045 308.566 58.3997C306.038 51.3671 301.474 45.2421 295.454 40.8006C290.426 37.0469 285.052 33.7794 279.403 31.0421C269.105 25.6913 257.074 24.7348 246.057 28.391C240.51 30.0125 234.839 31.1821 229.102 31.8882C225.367 32.4176 221.583 31.3299 218.702 28.8987C215.7 26.6777 213.133 23.9243 211.129 20.776C207.104 13.6475 200.283 8.51645 192.308 6.61779C178.274 1.88939 162.889 3.32442 149.976 10.5663C145.221 13.5271 141.014 17.2866 137.542 21.6785C134.49 25.4023 131.083 28.8215 127.369 31.8882C120.701 38.0489 111.031 39.7275 102.671 36.1752C100.858 35.2867 98.9654 34.5691 97.0187 34.0317C87.0715 31.8882 77.4634 31.2678 68.7596 38.1495C63.1747 42.6969 58.513 48.2685 55.0256 54.564C51.2265 61.6954 43.8977 66.2561 35.8094 66.5223C25.1514 67.2332 15.7484 73.7353 11.337 83.4445C3.57221 96.3498 3.83525 112.539 12.0152 125.186C16.9531 133.553 17.2306 143.867 12.75 152.487C11.9587 154.461 11.1109 156.379 10.3762 158.128C4.94323 170.541 2.74617 184.124 3.98965 197.613C3.98136 202.662 5.62888 207.575 8.68066 211.602C12.2978 215.832 15.8585 220.119 19.2496 224.519C23.4491 229.809 26.2305 236.079 27.3317 242.739C28.2931 249.195 30.7934 255.328 34.6225 260.62C45.03 275.491 61.692 284.783 79.8371 285.834C86.485 287.157 93.3482 286.945 99.9011 285.213C107.793 282.39 116.173 281.181 124.543 281.66H135.282C135.793 281.036 135.793 280.14 135.282 279.516C130.622 270.747 125.49 262.236 119.909 254.02C118.069 251.351 116.444 248.54 115.048 245.615C111.738 238.439 107.418 231.772 102.218 225.816C94.9392 219.683 88.3278 212.801 82.4935 205.284C81.9431 204.085 80.9061 203.178 79.6431 202.79C78.3802 202.402 77.0114 202.571 75.8809 203.254C71.1091 205.484 65.4505 204.517 61.6948 200.828C59.7564 199.146 57.6328 197.688 55.3647 196.485C49.0811 193.82 45.1632 187.491 45.5871 180.691C45.6544 177.911 45.9188 175.141 46.3783 172.399C46.4582 168.98 48.0287 165.766 50.6786 163.598C53.3285 161.431 56.7943 160.525 60.1688 161.117C65.7831 162 71.424 159.696 74.807 155.138C78.1621 150.913 82.6798 147.756 87.8062 146.057C97.6969 143.123 109.114 148.708 106.966 161.343C106.938 161.794 106.938 162.246 106.966 162.697C106.966 167.153 107.475 168.337 111.826 168.732C115.487 169.308 119.058 170.351 122.452 171.835C127.121 173.699 130.276 178.104 130.534 183.116C131.496 190.96 127.61 198.606 120.7 202.464C117.252 204.946 113.465 207.089 110.018 209.289C110.639 211.055 111.832 212.564 113.409 213.576C126.125 224.461 137.713 236.593 147.998 249.79C151.264 254.02 155.063 257.812 159.302 261.071C163.145 263.948 166.141 263.158 167.949 258.589C168.649 256.777 169.105 254.88 169.306 252.948C170.21 245.333 170.945 237.718 171.849 230.385C172.188 227.791 171.849 225.816 168.74 225.14C164.466 223.727 161.113 220.38 159.697 216.114C155.609 207.176 157.626 196.634 164.728 189.829C166.728 187.453 169.515 185.872 172.584 185.372C181.202 185.087 189.437 181.747 195.813 175.952C200.24 171.823 206.765 170.858 212.203 173.527C217.452 175.949 220.713 181.299 220.455 187.065C220.901 190.062 220.449 193.123 219.155 195.864C215.611 200.549 213.159 205.964 211.977 211.715C211.977 212.279 211.186 212.786 210.733 213.294C207.873 217.264 203.496 219.877 198.638 220.514C191.461 221.36 190.217 223.335 189.709 230.555C189.709 233.093 189.03 235.631 188.974 238.17C188.183 245.699 188.526 253.304 189.991 260.733C193.474 260.112 196.465 257.899 198.073 254.753C201.696 249.391 204.853 243.729 207.512 237.831C214.112 220.986 221.66 204.527 230.119 188.531C233.058 182.89 236.732 177.927 240.123 172.681C241.617 170.883 241.443 168.233 239.727 166.645C234.682 160.096 235.112 150.869 240.745 144.816C245.147 138.95 253.297 137.386 259.565 141.206C263.395 143.733 268.506 143.059 271.547 139.626C274.035 137.235 276.875 135.238 279.968 133.703C284.852 130.953 290.81 130.904 295.737 133.575C300.665 136.246 303.868 141.261 304.215 146.846C305.921 155.414 302.979 164.245 296.472 170.086C292.176 174.147 292.289 174.599 296.472 179.055C299.662 181.794 301.482 185.797 301.445 189.998C300.739 196.805 296.422 202.708 290.142 205.453C277.199 212.956 264.313 209.684 251.653 203.874C248.205 202.238 246.566 198.685 243.457 195.639C235.319 207.823 230.232 221.022 223.45 233.262C213.729 250.692 207.06 266.373 207.625 271.732L209.49 270.942C217.968 266.994 224.354 259.661 233.058 256.22C235.488 255.205 235.319 253.005 235.658 250.974C236.215 245.478 240.213 240.943 245.605 239.693C248.839 238.496 252.465 239.077 255.16 241.224C257.856 243.372 259.227 246.772 258.774 250.184C256.421 256.027 259.084 262.683 264.821 265.302C265.409 265.679 265.925 266.156 266.347 266.712C270.426 270.92 270.947 277.422 267.591 282.224C265.273 285.721 260.865 286.511 255.044 284.029C251.012 282.202 246.537 281.575 242.158 282.224C239.644 282.69 237.048 282.334 234.754 281.208C229.102 278.501 229.102 278.444 225.654 283.239C223.038 285.997 221.052 289.288 219.833 292.885H219.946Z" fill="#FFEBF2"/>
<path d="M160.952 435.413C163.015 446.688 163.622 458.24 162.754 469.711C160.998 484.84 158.074 499.768 154.014 514.323C153.113 517.524 194.698 509.305 191.899 502.484C189.177 496.308 187.106 489.794 185.728 483.074C183.347 466.468 184.901 449.447 190.232 433.736C193.521 423.981 197.079 414.327 200.278 404.571C201.809 399.947 201.539 399.845 197.124 397C195.232 399.541 194.422 402.996 191.899 404.977C191.043 405.638 190.052 406.552 188.881 405.638C188.179 404.923 187.899 403.818 188.16 402.792C188.611 399.083 159.253 420.219 160.952 435.413Z" fill="#FFB31B" fill-opacity="0.469939"/>
<path fill-rule="evenodd" clip-rule="evenodd" d="M236.901 527.257C233.382 529.826 229.108 531.155 224.75 531.036C213.669 533.956 202.293 535.622 190.839 536C185.393 535.715 179.947 535.567 174.511 535.419H174.511C157.382 534.954 140.355 534.492 123.752 529.739C120.074 528.69 116.272 528.14 112.448 528.103C110.922 528.103 108.435 528.103 108.492 526.298C108.546 524.557 111.125 524.653 112.728 524.712L112.9 524.719C117.792 524.663 122.661 525.406 127.312 526.918C139.538 531.023 139.579 530.873 142.747 519.231L142.911 518.627C144.097 514.273 145.333 510.105 146.548 506.009C148.749 498.587 150.881 491.399 152.519 483.767C156.051 466.94 156.339 449.596 153.367 432.662C150.428 415.488 150.428 397.941 153.367 380.767C155.044 371.147 156.045 361.421 156.363 351.661C157.501 336.307 154.289 320.943 147.094 307.325C144.543 302.626 142.442 297.696 140.82 292.603C139.847 289.206 136.836 286.789 133.303 286.567C122.904 284.988 112.561 283.465 102.501 288.541C97.7123 290.438 92.5123 291.06 87.4104 290.346C80.9944 290.156 74.6136 289.325 68.3638 287.864C45.7565 281.66 29.0836 269.137 23.9404 244.882C20.9275 233.887 15.0817 223.872 6.98496 215.832C3.41245 211.552 1.19015 206.311 0.598398 200.772C-1.17413 185.714 1.00726 170.454 6.92844 156.492C7.19689 155.787 7.46887 155.082 7.74085 154.377L7.7409 154.377C8.55688 152.261 9.37286 150.146 10.0935 148.031C12.6393 141.959 12.1139 135.036 8.68051 129.416C0.333568 116.717 -1.10835 100.697 4.83727 86.7161C9.86739 73.8553 18.5147 64.6045 33.0964 63.1943C41.8584 62.2432 49.4442 56.694 52.9908 48.6412C56.8191 41.9848 62.2853 36.4129 68.8724 32.4524C75.4234 28.2617 83.3959 26.8982 90.9711 28.6731C95.7913 29.4316 100.537 30.6017 105.157 32.1703C112.554 34.9162 120.873 33.1588 126.521 27.6577C129.995 24.5823 133.226 21.2444 136.186 17.6737C148.444 3.04578 168.055 -3.21488 186.543 1.59758C191.121 2.61291 195.586 3.85387 199.995 5.20765C205.007 6.54131 209.255 9.86339 211.751 14.402C213.488 17.3755 215.513 20.1716 217.798 22.7503C221.4 27.1662 227.272 29.0462 232.775 27.5449C236.486 26.9362 240.105 25.9168 243.725 24.8972C248.156 23.6493 252.588 22.4009 257.191 21.9042C263.448 21.277 269.764 22.1471 275.616 24.4425C282.997 27.4798 289.95 31.4617 296.302 36.2881C304.025 41.9333 309.825 49.8092 312.918 58.851C315.833 65.6672 318.325 72.6561 320.379 79.7781C321.367 83.9417 324.316 87.3688 328.291 88.9724C333.323 91.3794 338.063 94.3505 342.421 97.8284C348.03 102.222 350.96 109.201 350.164 116.274C349.719 120.469 348.925 124.62 347.79 128.683C346.523 134.849 347.421 141.263 350.333 146.846C358.755 161.167 355.523 179.47 342.703 190.054C341.223 191.183 339.992 192.604 339.086 194.228C337.354 197.79 337.354 201.948 339.086 205.51C344.26 216.769 342.619 229.979 334.847 239.636C329.084 247.809 321.744 254.751 313.257 260.056C306.37 264.458 301.019 270.882 297.941 278.444C291.08 293.479 275.566 302.661 259.056 301.459C253.555 300.964 248.214 300.123 242.897 299.285C237.29 298.402 231.708 297.522 225.993 297.059C219.267 296.495 217.063 297.059 214.689 303.264C208.237 320.718 203.597 338.788 200.843 357.189C200.07 363.025 199.178 368.838 198.275 374.72L198.275 374.722L198.275 374.724C197.791 377.879 197.303 381.055 196.83 384.264C198.447 384.022 198.994 383.001 199.505 382.047C199.709 381.667 199.907 381.298 200.164 380.993C201.513 379.257 203.968 378.841 205.816 380.034C212.485 383.136 213.898 386.352 211.468 393.346C207.286 404.12 203.047 414.894 198.582 425.611C191.201 443.47 189.504 463.163 193.721 482.018C194.679 485.599 195.946 489.091 197.508 492.454C202.483 502.943 206.732 513.761 210.225 524.831C211.129 528.554 213.164 529.344 216.837 528.836C223.437 527.503 230.174 526.972 236.901 527.257ZM222.233 293.189L223.962 293.42L223.964 293.42C236.476 295.086 248.529 296.69 260.582 298.525C274.909 299.331 288.304 291.421 294.493 278.501C298.12 269.396 304.501 261.647 312.749 256.333C319.583 251.9 325.62 246.351 330.608 239.918C338.295 229.821 341.121 219.386 335.299 207.54C331.79 200.953 333.557 192.799 339.482 188.249C342.839 185.346 345.652 181.87 347.79 177.983C351.577 170.368 354.911 162.302 349.825 154.236C343.651 144.756 342.113 132.996 345.642 122.253C345.981 121.125 346.264 119.996 346.49 118.868C348.345 111.647 345.247 104.064 338.86 100.197C334.741 97.1831 330.374 94.5224 325.804 92.2441C321.395 90.4179 318.178 86.5312 317.214 81.8651C314.796 73.8804 311.909 66.045 308.566 58.3997C306.038 51.3672 301.474 45.2421 295.454 40.8006C290.426 37.047 285.051 33.7794 279.403 31.0422C269.105 25.6913 257.074 24.7348 246.057 28.391C240.509 30.0125 234.839 31.1821 229.102 31.8883C225.367 32.4177 221.583 31.3299 218.702 28.8987C215.7 26.6777 213.133 23.9243 211.129 20.7761C207.104 13.6475 200.283 8.51648 192.308 6.61783C178.274 1.88943 162.889 3.32446 149.976 10.5663C145.22 13.5272 141.014 17.2867 137.542 21.6786C134.49 25.4023 131.083 28.8216 127.369 31.8883C120.701 38.0489 111.03 39.7275 102.67 36.1752C100.857 35.2867 98.9652 34.5691 97.0185 34.0318C87.0713 31.8883 77.4632 31.2678 68.7594 38.1495C63.1746 42.6969 58.5128 48.2685 55.0255 54.564C51.2263 61.6954 43.8975 66.2562 35.8093 66.5223C25.1513 67.2333 15.7482 73.7353 11.3369 83.4445C3.57205 96.3498 3.83509 112.539 12.0151 125.186C16.9529 133.553 17.2305 143.867 12.7498 152.487C12.2236 153.8 11.6723 155.088 11.146 156.318C10.8809 156.937 10.6221 157.542 10.3761 158.128C4.94307 170.541 2.74601 184.124 3.98949 197.613C3.98121 202.662 5.62872 207.575 8.68051 211.602C12.2977 215.832 15.8583 220.119 19.2494 224.519C23.449 229.809 26.2303 236.079 27.3315 242.739C28.2929 249.195 30.7933 255.328 34.6224 260.62C45.0299 275.491 61.6919 284.783 79.837 285.834C86.4848 287.158 93.348 286.945 99.9009 285.213C107.793 282.39 116.173 281.182 124.543 281.66H135.281C135.793 281.036 135.793 280.14 135.281 279.516C130.622 270.747 125.49 262.236 119.908 254.02C118.069 251.351 116.444 248.54 115.048 245.615C111.738 238.44 107.418 231.772 102.218 225.816C94.939 219.683 88.3276 212.801 82.4933 205.284C81.9429 204.085 80.9059 203.178 79.643 202.79C78.38 202.402 77.0112 202.571 75.8807 203.254C71.1089 205.484 65.4504 204.517 61.6946 200.828C59.7563 199.146 57.6326 197.689 55.3646 196.485C49.081 193.82 45.163 187.491 45.5869 180.691C45.6542 177.912 45.9187 175.141 46.3782 172.399C46.4581 168.98 48.0285 165.766 50.6784 163.598C53.3284 161.431 56.7941 160.525 60.1686 161.117C65.783 162 71.4239 159.696 74.8068 155.138C78.1619 150.913 82.6797 147.757 87.806 146.057C97.6967 143.123 109.113 148.708 106.966 161.343C106.938 161.794 106.938 162.246 106.966 162.697C106.966 167.153 107.474 168.337 111.826 168.732C115.487 169.308 119.058 170.351 122.452 171.835C127.121 173.699 130.276 178.104 130.534 183.116C131.496 190.96 127.61 198.606 120.7 202.464C118.376 204.137 115.898 205.656 113.474 207.142C112.302 207.861 111.142 208.572 110.018 209.289C110.638 211.055 111.832 212.564 113.409 213.576C126.125 224.461 137.713 236.593 147.998 249.79C151.264 254.02 155.063 257.812 159.302 261.071C163.145 263.948 166.14 263.158 167.949 258.589C168.649 256.777 169.105 254.88 169.305 252.948C169.72 249.458 170.099 245.967 170.475 242.503L170.475 242.503L170.475 242.502L170.475 242.499L170.475 242.498L170.475 242.497L170.475 242.496L170.476 242.495L170.476 242.495L170.476 242.494L170.476 242.493L170.476 242.492L170.476 242.491C170.92 238.403 171.359 234.353 171.849 230.385C172.188 227.791 171.849 225.816 168.74 225.14C164.466 223.727 161.113 220.38 159.697 216.114C155.609 207.176 157.626 196.634 164.727 189.829C166.728 187.453 169.515 185.872 172.583 185.372C181.202 185.087 189.437 181.748 195.812 175.952C200.24 171.824 206.765 170.858 212.203 173.527C217.452 175.949 220.713 181.299 220.454 187.065C220.901 190.062 220.449 193.123 219.154 195.864C215.611 200.549 213.159 205.964 211.977 211.715C211.977 212.118 211.572 212.493 211.176 212.859C211.018 213.005 210.862 213.15 210.733 213.294C207.873 217.264 203.496 219.877 198.638 220.514C191.461 221.36 190.217 223.335 189.708 230.555C189.708 231.879 189.524 233.203 189.339 234.528C189.17 235.742 189.001 236.956 188.974 238.17C188.183 245.699 188.526 253.304 189.991 260.733C193.474 260.112 196.465 257.899 198.073 254.753C201.696 249.391 204.853 243.729 207.512 237.831C214.112 220.986 221.659 204.527 230.119 188.531C232.223 184.493 234.703 180.802 237.187 177.106C238.173 175.639 239.159 174.171 240.123 172.681C241.617 170.883 241.443 168.233 239.727 166.645C234.682 160.096 235.112 150.869 240.744 144.816C245.147 138.95 253.297 137.386 259.565 141.206C263.395 143.733 268.505 143.059 271.547 139.626C274.035 137.235 276.875 135.238 279.968 133.703C284.851 130.953 290.809 130.904 295.737 133.575C300.665 136.246 303.868 141.261 304.214 146.846C305.921 155.414 302.979 164.245 296.471 170.086C292.176 174.147 292.289 174.599 296.471 179.055C299.662 181.794 301.482 185.797 301.445 189.998C300.739 196.805 296.422 202.708 290.141 205.453C277.199 212.956 264.313 209.684 251.652 203.874C249.444 202.826 247.978 200.992 246.392 199.008L246.392 199.007C245.502 197.894 244.575 196.733 243.457 195.639C238.402 203.207 234.524 211.166 230.686 219.045L230.686 219.045L230.686 219.046L230.686 219.046L230.686 219.046L230.686 219.046L230.685 219.046L230.685 219.047C228.345 223.851 226.019 228.626 223.45 233.262C213.729 250.692 207.06 266.373 207.625 271.732L209.49 270.942C213.457 269.094 216.967 266.506 220.47 263.921C224.452 260.983 228.427 258.051 233.058 256.22C235.095 255.369 235.306 253.685 235.52 251.966L235.52 251.966L235.52 251.965C235.562 251.634 235.603 251.302 235.658 250.974C236.215 245.478 240.213 240.943 245.605 239.693C248.839 238.496 252.465 239.077 255.16 241.224C257.856 243.372 259.227 246.772 258.774 250.184C256.421 256.027 259.084 262.683 264.821 265.302C265.408 265.679 265.925 266.156 266.347 266.712C270.425 270.92 270.947 277.422 267.591 282.224C265.273 285.721 260.865 286.511 255.044 284.029C251.012 282.202 246.537 281.575 242.157 282.224C239.644 282.69 237.048 282.334 234.753 281.208L234.608 281.139C229.101 278.5 229.072 278.486 225.654 283.239C223.038 285.997 221.052 289.288 219.833 292.885H219.946L222.233 293.189ZM273.314 143.449C276.451 141.262 279.608 139.061 283.303 137.708C275.067 145.682 267.633 154.339 260.205 162.989L260.204 162.989L260.204 162.99L260.204 162.99L260.203 162.99L260.203 162.991L260.203 162.991L260.202 162.992L260.202 162.992L260.199 162.996L260.197 162.998L260.193 163.002L260.192 163.004L260.191 163.004L260.189 163.007C257.376 166.282 254.564 169.557 251.709 172.794C250.764 173.873 249.931 175.044 249.222 176.291C238.879 195.244 228.593 214.197 218.702 233.375C213.39 243.754 208.529 254.246 204.121 264.963C203.914 265.464 203.664 265.979 203.411 266.502L203.411 266.502C202.208 268.982 200.915 271.649 203.668 273.932C206.796 276.524 209.873 274.453 212.621 272.603C212.803 272.481 212.984 272.359 213.164 272.24C216.544 270.204 219.808 267.982 222.941 265.584C230.68 260.015 239.268 255.73 248.374 252.892C249.548 252.439 250.508 251.723 251.456 251.015L251.456 251.015C252.516 250.224 253.561 249.443 254.874 249.056C255.439 255.994 254.252 259.04 248.6 261.353C228.93 269.472 214.261 286.392 209.038 306.987C201.803 330.26 196.603 354.116 193.495 378.285C193.213 380.343 192.902 382.401 192.591 384.458L192.591 384.461C192.28 386.52 191.969 388.579 191.687 390.638C191.359 391.777 191.71 393.003 192.591 393.797C193.958 394.742 195.129 393.929 196.15 393.221L196.285 393.128L196.378 393.064C198.321 391.713 199.455 389.745 200.591 387.774C201.304 386.536 202.018 385.296 202.934 384.208L203.143 384.328C208.481 387.371 208.787 387.545 206.89 392.613C204.626 398.722 202.219 404.796 199.809 410.875L199.809 410.876C197.947 415.572 196.085 420.27 194.286 424.991C187.598 442.431 185.648 461.327 188.635 479.762C190.364 487.222 192.962 494.453 196.378 501.31C199.889 508.882 202.983 516.64 205.647 524.549L205.665 524.612C207.342 530.36 207.376 530.476 201.238 531.487C192.922 532.671 184.489 532.785 176.144 531.826C169.418 531.318 162.693 530.811 155.967 530.811C153.882 530.728 151.804 530.502 149.75 530.134C146.924 529.682 145.398 528.893 146.246 525.283C146.508 524.168 146.748 523.048 146.988 521.928L146.989 521.926C147.526 519.418 148.065 516.908 148.846 514.452C153.939 498.294 157.608 481.723 159.81 464.927C160.9 452.193 160.138 439.368 157.55 426.852C155.418 409.985 155.59 392.907 158.058 376.085C159.132 366.835 160.036 357.584 160.658 348.333C161.194 332.499 157.611 316.797 150.259 302.756C148.113 298.381 146.238 293.775 144.345 289.13L144.345 289.129L144.345 289.128L144.345 289.128L144.344 289.127L144.344 289.126C143.943 288.143 143.542 287.157 143.137 286.172C139.253 276.97 134.583 268.12 129.177 259.717C124.45 252.84 120.146 245.682 116.291 238.282C111.698 228.811 104.546 221.362 97.3829 213.902L97.3827 213.901L97.3826 213.901L97.3824 213.901L97.3822 213.901L97.3821 213.901L97.3819 213.901L97.3818 213.9L97.3816 213.9C95.203 211.631 93.0234 209.361 90.9146 207.033C82.6466 198.663 75.6063 189.167 70.0028 178.829C69.1196 177.001 68.3878 175.135 67.6541 173.264C67.1201 171.902 66.5851 170.538 65.99 169.184C65.0857 166.984 66.1596 165.517 68.0247 165.179C68.4711 165.098 68.9175 164.916 69.3647 164.735L69.3649 164.735L69.365 164.735L69.3651 164.735L69.3653 164.735L69.3654 164.735L69.3655 164.735L69.3657 164.734L69.3658 164.734C70.7866 164.158 72.2152 163.577 73.6765 166.194C76.3523 171.127 79.2384 175.867 82.1202 180.6L82.1209 180.601C84.4127 184.365 86.7018 188.124 88.8799 191.972C93.8938 200.722 100.598 208.391 108.605 214.535C122.196 225.927 134.496 238.77 145.285 252.836C147.747 255.776 150.411 258.486 153.07 261.193L153.071 261.193L153.071 261.194L153.072 261.194L153.072 261.194L153.073 261.195L153.073 261.195L153.073 261.196C154.137 262.278 155.2 263.36 156.25 264.455C158.33 266.767 161.494 267.785 164.535 267.119C167.576 266.454 170.024 264.208 170.944 261.24C172.658 257.154 173.652 252.803 173.883 248.379C174.548 233.215 177.247 218.209 181.909 203.761C182.192 202.884 182.363 201.974 182.418 201.054C182.666 199.76 182.787 198.376 182.907 196.997C183.168 193.986 183.428 190.994 185.017 188.983C188.887 185.431 192.984 182.134 197.282 179.111C198.089 178.345 199.357 178.345 200.164 179.111C200.963 180.838 200.055 182.461 199.19 184.006C198.953 184.43 198.72 184.847 198.525 185.26C188.022 207.647 183.486 232.36 185.357 257.01C185.3 257.93 185.3 258.853 185.357 259.774C186.487 265.866 188.578 266.599 193.552 263.102C201.19 256.911 206.832 248.613 209.772 239.241C218.566 215.796 229.94 193.397 243.683 172.455C249.335 165.009 254.987 158.015 260.639 151.077C260.783 150.915 260.921 150.703 261.06 150.488C261.36 150.026 261.666 149.554 262.052 149.554C266.273 148.359 269.781 145.913 273.314 143.449ZM300.936 151.697C301.217 148.152 300.345 144.611 298.45 141.6C295.963 137.201 294.437 136.749 290.141 139.175C287.111 140.896 284.301 142.979 281.777 145.38C273.468 153.502 265.839 162.302 258.378 171.158C255.114 175.349 252.113 179.739 249.392 184.301C246.386 188.595 246.737 194.389 250.239 198.29C252.8 201.263 256.316 203.257 260.187 203.93C261.331 204.311 262.522 204.494 263.71 204.677C264.811 204.846 265.909 205.015 266.969 205.341C274.643 207.896 283.084 206.548 289.576 201.731C299.523 194.849 301.388 186.67 291.724 180.183C291.512 180.065 291.321 179.912 291.159 179.732C289.686 178.551 288.784 176.803 288.676 174.922C288.568 173.04 289.265 171.2 290.594 169.86C291.815 168.443 293.2 167.174 294.719 166.081C299.215 162.737 301.584 157.256 300.936 151.697ZM98.7141 151.415C103.857 153.333 103.236 157.733 102.727 161.117C102.162 170.199 103.122 171.214 111.77 172.004C114.286 172.359 116.765 172.945 119.174 173.753C122.927 174.769 125.938 177.565 127.226 181.228C128.513 184.89 127.911 188.951 125.617 192.085C121.141 197.743 115.31 202.186 108.661 205.002C106.118 206.469 104.196 204.889 102.501 203.254C99.1015 199.846 96.1053 196.061 93.5709 191.972C88.9741 184.451 84.4338 176.93 79.95 169.409C79.6814 168.97 79.3911 168.523 79.0958 168.068L79.0958 168.068L79.0957 168.067L79.0956 168.067L79.0956 168.067C77.1541 165.076 74.9956 161.751 77.3502 158.128C80.4591 153.075 85.991 150.015 91.9319 150.061C94.257 150.091 96.5565 150.55 98.7141 151.415ZM192.195 217.243C195.308 217.928 198.554 217.672 201.521 216.509C206.382 215.257 209.615 210.669 209.151 205.679C208.83 203.17 209.999 200.705 212.146 199.361C217.463 193.546 217.463 184.645 212.146 178.829C209.32 176.234 206.494 176.517 204.912 180.07C199.299 190.82 194.938 202.175 191.913 213.915C191.493 215.009 191.597 216.235 192.195 217.243ZM50.617 188.249C49.2515 184.93 48.8405 181.297 49.4302 177.757V177.475C48.7398 173.453 50.4621 169.398 53.8386 167.096C57.0601 164.897 58.6426 165.122 60.6773 168.281C61.0643 168.865 61.3865 169.489 61.6381 170.142C64.5121 178.935 68.6633 187.259 73.9591 194.849C74.087 195.05 74.2327 195.252 74.3809 195.457C75.1488 196.523 75.9822 197.679 74.7503 199.192C73.5752 200.666 71.6984 201.398 69.8332 201.11C62.678 198.061 56.1597 193.698 50.617 188.249ZM179.083 189.829C173.988 188.427 168.552 190.258 165.349 194.454C162.02 198.504 160.363 203.668 160.715 208.894C161.093 213.547 163.676 217.74 167.666 220.176C170.492 221.924 172.696 221.078 173.318 218.089C174.343 214.658 175.337 211.211 176.332 207.756L176.332 207.756L176.332 207.756L176.332 207.756C177.202 204.736 178.074 201.71 178.97 198.685C179.899 195.715 179.938 192.538 179.083 189.547V189.829ZM261.065 266.822C263.894 268.819 265.749 271.911 266.178 275.342C266.654 277.506 265.817 279.747 264.039 281.072C262.26 282.397 259.869 282.561 257.926 281.49C252.213 279.044 245.929 278.243 239.784 279.178C238.772 279.513 237.668 279.426 236.721 278.938C235.774 278.449 235.065 277.6 234.753 276.583C234.13 274.62 235.42 273.673 236.688 272.742C236.914 272.576 237.14 272.41 237.353 272.24C241.552 269.003 246.273 266.504 251.313 264.85C254.697 264.11 258.237 264.826 261.065 266.822ZM240.01 158.128C240.1 158.872 240.251 159.608 240.462 160.328C240.496 160.43 240.53 160.534 240.565 160.639C241.095 162.253 241.673 164.011 243.796 164.276C245.598 164.501 246.287 163.436 246.979 162.366L246.979 162.365C247.155 162.093 247.332 161.82 247.527 161.569C248.26 160.639 249.009 159.709 249.759 158.778C251.786 156.264 253.82 153.742 255.552 151.19C255.735 150.95 255.94 150.71 256.148 150.468C257.164 149.282 258.242 148.024 257.022 146.339C255.714 144.572 253.554 143.646 251.37 143.913C247.917 144.156 244.723 145.832 242.565 148.533C240.406 151.234 239.479 154.714 240.01 158.128ZM251.596 243.585C252.048 243.867 252.557 244.656 252.557 245.108C252.327 245.521 252.042 245.901 251.709 246.236C248.732 248.779 245.272 250.698 241.536 251.877C240.179 252.271 239.105 251.764 239.105 250.354C239.335 247.048 241.349 244.13 244.362 242.739C246.731 241.58 249.559 241.911 251.596 243.585Z" fill="black"/>
<path fill-rule="evenodd" clip-rule="evenodd" d="M275 100C272.12 96.9437 272.233 93.9441 270.991 91.567C269.247 86.8745 265.05 83.5393 260.094 82.9076C255.799 82.7503 252.153 79.7011 251.229 75.4933C246.148 61.344 232.823 56.5898 218.368 58.5141C213.982 59.0609 209.722 60.3629 205.777 62.3627C201.975 64.1019 197.812 64.8978 193.638 64.6832C190.791 64.9206 188.179 63.0884 187.427 60.3252C181.499 46.9683 170.489 44.6478 159.196 54.0995C155.838 56.9544 152.943 60.3148 150.614 64.0607C148.642 67.7968 145.425 70.721 141.523 72.3239C140.112 72.7201 138.531 72.7767 138.079 71.0221C137.628 69.2676 139.209 69.211 140.225 68.8148C143.994 66.9583 147.092 63.9712 149.089 60.2686C152.04 55.9819 155.618 52.1658 159.704 48.9492C164.492 44.6531 171.093 43.0171 177.327 44.5819C183.56 46.1468 188.613 50.7087 190.815 56.7596C192.678 60.8346 193.695 61.627 198.381 60.4384C203.067 59.2499 207.528 57.0426 212.214 55.7409C223.814 51.5824 236.719 53.5155 246.6 60.8912C250.745 63.9118 253.797 68.203 255.295 73.1162C255.95 76.1384 258.278 78.5153 261.28 79.2288C271.895 82.6246 274.774 86.8128 275 100Z" fill="black"/>
<path fill-rule="evenodd" clip-rule="evenodd" d="M34.8772 138C28.6449 131.417 28.351 121.201 34.1945 114.27C35.409 112.571 36.8012 111.007 38.3475 109.604C41.1353 107.122 42.781 103.604 42.8988 99.8727C42.9458 92.3414 48.2226 85.856 55.5854 84.2804C59.7267 83.664 63.7302 82.3356 67.4187 80.3539C67.9556 79.882 68.7592 79.882 69.2961 80.3539C69.988 81.0149 70.1926 82.0383 69.8081 82.9147C69.2653 84.2455 68.0477 85.1807 66.6222 85.3616L57.8041 87.5241C50.7497 89.3451 47.45 92.6456 47.3363 99.6451C47.3065 104.356 45.2301 108.822 41.6472 111.88C39.341 113.87 37.4137 116.26 35.9581 118.936C33.1766 123.356 32.71 128.85 34.7065 133.675C35.6887 134.93 35.7575 136.672 34.8772 138Z" fill="black"/>
</svg>
